<svg id="Layer_1" data-name="Layer 1" xmlns="http://www.w3.org/2000/svg" viewBox="0 0 49.73 54.41"><defs><style>.cls-1{fill:#ffc11b;}.cls-2{fill:none;stroke:#000;stroke-linecap:round;stroke-linejoin:round;}</style></defs><title>brand</title><circle class="cls-1" cx="26.78" cy="27.79" r="22.65"/><rect class="cls-2" x="3.75" y="25.96" width="23.64" height="13.69" rx="1.24" ry="1.24"/><path class="cls-2" d="M8.73,6,7.48,3.56,6.24,6V22.23a1.24,1.24,0,0,0,1.24,1.24h0a1.24,1.24,0,0,0,1.24-1.24Z"/><line class="cls-2" x1="6.24" y1="6.05" x2="8.73" y2="6.05"/><line class="cls-2" x1="6.24" y1="20.98" x2="8.73" y2="20.98"/><path class="cls-2" d="M39.84,26V4.81a1.24,1.24,0,0,0-1.24-1.24H15a1.24,1.24,0,0,0-1.24,1.24V23.47"/><line class="cls-2" x1="28.64" y1="8.54" x2="33.62" y2="8.54"/><line class="cls-2" x1="28.64" y1="11.03" x2="34.86" y2="11.03"/><line class="cls-2" x1="18.68" y1="17.25" x2="23.66" y2="17.25"/><line class="cls-2" x1="18.68" y1="20.98" x2="27.39" y2="20.98"/><line class="cls-2" x1="18.68" y1="23.47" x2="23.66" y2="23.47"/><line class="cls-2" x1="29.88" y1="20.98" x2="34.86" y2="20.98"/><line class="cls-2" x1="26.15" y1="23.47" x2="33.62" y2="23.47"/><line class="cls-2" x1="13.95" y1="29.69" x2="18.68" y2="29.69"/><line class="cls-2" x1="13.95" y1="32.18" x2="23.96" y2="32.18"/><line class="cls-2" x1="13.95" y1="34.91" x2="20.89" y2="34.91"/><rect class="cls-2" x="33.62" y="28.45" width="6.22" height="11.2" rx="1.24" ry="1.24"/><line class="cls-2" x1="34.94" y1="39.65" x2="25.31" y2="39.65"/><line class="cls-2" x1="34.86" y1="25.96" x2="29.88" y2="25.96"/><line class="cls-2" x1="31.13" y1="28.45" x2="29.88" y2="28.45"/><line class="cls-2" x1="31.13" y1="30.94" x2="29.88" y2="30.94"/><line class="cls-2" x1="33.81" y1="37.3" x2="39.64" y2="37.3"/><line class="cls-2" x1="33.81" y1="30.51" x2="39.64" y2="30.51"/><rect class="cls-2" x="7.21" y="29.47" width="4.25" height="4.25"/><rect class="cls-2" x="19.14" y="8.22" width="4.25" height="4.25"/></svg>