<svg id="Layer_1" data-name="Layer 1" xmlns="http://www.w3.org/2000/svg" viewBox="0 0 49.73 54.41"><defs><style>.cls-1{fill:#ffc11b;}.cls-2,.cls-3{fill:none;stroke:#000;stroke-linecap:round;stroke-linejoin:round;}.cls-2{stroke-width:0.9px;}</style></defs><title>consultation</title><circle class="cls-1" cx="26.45" cy="27.79" r="22.65"/><path class="cls-2" d="M28.69,6.44v3a2.39,2.39,0,0,0,2.39,2.39h6V35.77a2.38,2.38,0,0,1-2.39,2.39H9.53a2.39,2.39,0,0,1-2.39-2.39V5.84A2.39,2.39,0,0,1,9.53,3.44"/><line class="cls-2" x1="28.69" y1="3.44" x2="37.09" y2="11.84"/><line class="cls-2" x1="23.9" y1="17.81" x2="18.77" y2="17.81"/><line class="cls-2" x1="29.06" y1="14.44" x2="20.77" y2="14.44"/><line class="cls-2" x1="32.39" y1="14.44" x2="31.1" y2="14.44"/><line class="cls-2" x1="26.29" y1="17.81" x2="32.39" y2="17.81"/><line class="cls-2" x1="15.89" y1="21.4" x2="25.1" y2="21.4"/><line class="cls-2" x1="27.49" y1="21.4" x2="32.39" y2="21.4"/><line class="cls-2" x1="13.12" y1="28.59" x2="16.71" y2="28.59"/><line class="cls-2" x1="27.49" y1="28.59" x2="32.39" y2="28.59"/><line class="cls-2" x1="19.11" y1="28.59" x2="25.1" y2="28.59"/><line class="cls-2" x1="20.91" y1="25" x2="32.39" y2="25"/><line class="cls-2" x1="13.12" y1="32.18" x2="20.31" y2="32.18"/><line class="cls-2" x1="22.7" y1="32.18" x2="32.39" y2="32.18"/><polygon class="cls-2" points="11.79 1.32 28.13 1.41 11.78 19.41 11.79 1.32"/><polygon class="cls-3" points="14.62 4.47 20.83 4.47 14.69 11.8 14.62 4.47"/><line class="cls-2" x1="24.33" y1="3.66" x2="25.21" y2="4.16"/><line class="cls-2" x1="20.39" y1="7.53" x2="21.21" y2="8.34"/><line class="cls-2" x1="16.96" y1="11.34" x2="17.58" y2="12.22"/><line class="cls-2" x1="14.02" y1="14.16" x2="14.77" y2="15.22"/><line class="cls-2" x1="11.96" y1="11.91" x2="12.83" y2="11.91"/><line class="cls-2" x1="11.77" y1="5.41" x2="12.46" y2="5.41"/><line class="cls-2" x1="17.89" y1="1.41" x2="17.89" y2="2.22"/></svg>