<svg id="Layer_1" data-name="Layer 1" xmlns="http://www.w3.org/2000/svg" viewBox="0 0 784 305">
  <defs>
    <style>
      .cls-1{fill:#ffc100;}
    </style>
  </defs>
  <title>
    hero-icons
  </title>
  <path class="cls-1" d="M699 54.84c-2.59 1.56-3.37 4.51-3.6 6l-.76.46a6.35 6.35 0 0 0 .07-1c-.07-4-3.87-6.5-4-6.6l-.84-.54-.82.57c-.16.11-3.87 2.73-3.81 6.74a7.76 7.76 0 0 0 2.3 5.12l-2.17 1.3a6.35 6.35 0 0 0 .07-1c-.07-4-3.87-6.5-4-6.6l-.84-.54-.82.57a9.47 9.47 0 0 0-3.78 5.62v-7a9.64 9.64 0 0 0 2.07.24 7 7 0 0 0 3.52-.89c3.49-2 3.82-6.54 3.83-6.73l.06-1-.9-.44c-.17-.09-4.28-2.06-7.76-.06a6.37 6.37 0 0 0-.83.58v-2.55a9.64 9.64 0 0 0 2.07.24 7 7 0 0 0 3.52-.89c3.49-2 3.82-6.54 3.83-6.73l.06-1-.9-.44c-.17-.09-4.28-2.06-7.76-.06a6.37 6.37 0 0 0-.83.58v-.89c1.12-.95 3.25-3.14 3.25-6.16 0-4-3.76-6.56-3.92-6.67l-.83-.55-.83.55c-.16.11-3.92 2.66-3.92 6.67 0 3 2.13 5.21 3.25 6.16v.88a6.35 6.35 0 0 0-.82-.57c-3.47-2-7.57 0-7.74.06l-.9.44.06 1c0 .19.34 4.73 3.82 6.73a7 7 0 0 0 3.52.89 9.57 9.57 0 0 0 2.06-.24v2.53a6.35 6.35 0 0 0-.82-.57c-3.47-2-7.57 0-7.74.06l-.9.44.06 1c0 .19.34 4.73 3.82 6.73a7 7 0 0 0 3.52.89 9.57 9.57 0 0 0 2.06-.24v6.88a9.51 9.51 0 0 0-3.7-5.57l-.82-.57-.84.54c-.16.1-4 2.6-4 6.62a6.37 6.37 0 0 0 .07 1l-2.17-1.31a7.82 7.82 0 0 0 2.32-5.14c.08-4-3.64-6.64-3.8-6.75l-.82-.57-.84.54c-.16.1-4 2.6-4 6.62a6.38 6.38 0 0 0 .07 1l-.77-.46c-.23-1.45-1-4.41-3.6-6-3.46-2.08-7.45-.09-7.62 0l-.83.42v.93c0 .19.07 4.73 3.55 6.81a7 7 0 0 0 3.65 1 10.44 10.44 0 0 0 3.3-.57l.76.46a6.35 6.35 0 0 0-.91.41c-3.51 1.94-3.92 6.47-3.93 6.67l-.08 1 .89.46a10.43 10.43 0 0 0 4.35 1 6.9 6.9 0 0 0 3.38-.83 7.76 7.76 0 0 0 3.44-4.44l2.16 1.3a6.35 6.35 0 0 0-.91.41c-3.51 1.94-3.92 6.47-3.93 6.67l-.08 1 .89.46a10.43 10.43 0 0 0 4.35 1 6.91 6.91 0 0 0 3.38-.83 7.77 7.77 0 0 0 3.44-4.44L673 76v20.5a1.5 1.5 0 0 0 3 0V66.88a8.93 8.93 0 0 0 3.38 5.31c.26 1.39 1.12 4.45 3.84 6a6.92 6.92 0 0 0 3.4.84A10.4 10.4 0 0 0 691 78l.89-.46-.08-1c0-.19-.43-4.73-3.94-6.68a6.38 6.38 0 0 0-.93-.41l2.17-1.31a7.81 7.81 0 0 0 3.45 4.46 6.92 6.92 0 0 0 3.4.84 10.4 10.4 0 0 0 4.34-1l.89-.46-.08-1c0-.19-.43-4.73-3.94-6.68a6.38 6.38 0 0 0-.93-.41l.77-.46a10.45 10.45 0 0 0 3.31.58 7 7 0 0 0 3.65-1c3.47-2.08 3.54-6.65 3.54-6.85v-.94l-.84-.42c-.2-.09-4.19-2.04-7.67.04zm-20.69-3.2a5.18 5.18 0 0 1 3.91-.22 4.34 4.34 0 0 1-6.05 3.47 5.13 5.13 0 0 1 2.17-3.25zm0-10.85a5.18 5.18 0 0 1 3.91-.22 5.13 5.13 0 0 1-2.14 3.25 5.18 5.18 0 0 1-3.91.22 5.13 5.13 0 0 1 2.17-3.24zm-3.83-12.54a5.13 5.13 0 0 1 1.75 3.47 2.18 2.18 0 1 1-3.51 0 5.14 5.14 0 0 1 1.79-3.47zm-5.57 15.58a5.13 5.13 0 0 1-2.13-3.26 4.32 4.32 0 0 1 6 3.47 5.14 5.14 0 0 1-3.85-.21zm0 10.85a5.14 5.14 0 0 1-2.13-3.26 4.32 4.32 0 0 1 6 3.47 5.14 5.14 0 0 1-3.85-.21zm-.52 7.74a5.14 5.14 0 0 1 1.69 3.51 5.19 5.19 0 0 1-1.83 3.47 5.13 5.13 0 0 1-1.69-3.51 5.18 5.18 0 0 1 1.86-3.47zm-9.3-5.59a5.13 5.13 0 0 1 1.69 3.51 5.18 5.18 0 0 1-1.78 3.47 5.14 5.14 0 0 1-1.69-3.51 5.19 5.19 0 0 1 1.81-3.46zm-12.48 3.58a4.79 4.79 0 0 1-2-3.26 4.82 4.82 0 0 1 3.78.25 5.13 5.13 0 0 1 2.07 3.29 5.13 5.13 0 0 1-3.82-.27zm8.41 9.51a5.13 5.13 0 0 1-3.89.15 4.32 4.32 0 0 1 6.08-3.37 5.14 5.14 0 0 1-2.16 3.23zm9.3 5.59a5.14 5.14 0 0 1-3.89.15 5.14 5.14 0 0 1 2.19-3.22 5.13 5.13 0 0 1 3.89-.15 5.13 5.13 0 0 1-2.16 3.22zm6.43-4.39a8.22 8.22 0 0 0 2.22-4.2v5.53zm19.13-14.26a5.13 5.13 0 0 1 1.81 3.44 2.18 2.18 0 1 1-3.51.06 5.13 5.13 0 0 1 1.74-3.49zm-9.3 5.59a5.13 5.13 0 0 1 1.81 3.44 2.18 2.18 0 1 1-3.51.06 5.13 5.13 0 0 1 1.74-3.5zm8 13.24a4.34 4.34 0 0 1-6.09-3.4 5.13 5.13 0 0 1 3.89.16 5.19 5.19 0 0 1 2.2 3.24zm9.3-5.59a4.34 4.34 0 0 1-6.09-3.4 5.13 5.13 0 0 1 3.89.16 5.19 5.19 0 0 1 2.19 3.25zm4.5-9.69a5.14 5.14 0 0 1-3.88.29 5.14 5.14 0 0 1 2.07-3.29 4.88 4.88 0 0 1 3.77-.28 4.81 4.81 0 0 1-1.96 3.29zM63.72 95.49H47.78v-1.34h3.92a5.43 5.43 0 0 0 4.6-3 15.58 15.58 0 0 0 0-12.14 5.5 5.5 0 0 0-4.62-3h-3.9v-2.22h-7.34V76H28.25v-2.21h-7.34V76H17a5.78 5.78 0 0 0-4.6 3 15.55 15.55 0 0 0 0 12.21 5.56 5.56 0 0 0 4.58 3h3.92v1.34H5.06a3.67 3.67 0 0 0-3.67 3.67v26a3.67 3.67 0 0 0 3.67 3.67h7.18v5a5.85 5.85 0 0 0 5.84 5.84h32.54a5.85 5.85 0 0 0 5.84-5.84v-5h7.26a3.63 3.63 0 0 0 3.58-3.67v-26a3.63 3.63 0 0 0-3.58-3.73zm-18.94 0h-1.34v-1.34h1.34zm-1.34 20.36h1.34v13.07l-.67.67-.67-.67zm3.51-3h-5.68v-1.35h5.68zm-3.51-4.34v-10h1.34v10zm-3-13H28.25v-1.37h12.19zm-22.37-4.36H17a2.68 2.68 0 0 1-1.91-1.34 11.88 11.88 0 0 1-.93-4.75 12.11 12.11 0 0 1 .84-4.69A2.82 2.82 0 0 1 17 79h6.92v-2.21h1.34V79h18.18v-2.21h1.34V79h6.92a2.52 2.52 0 0 1 1.91 1.34 12.64 12.64 0 0 1 0 9.54 2.49 2.49 0 0 1-1.89 1.3h-3.94V81.8a1.5 1.5 0 0 0-3 0v9.35h-1.34V81.8a1.5 1.5 0 0 0-3 0v9.35H28.25V81.8a1.5 1.5 0 0 0-3 0v9.34h-1.34V81.8a1.5 1.5 0 0 0-3 0v9.34zm5.84 3h1.34v1.34h-1.34zm0 21.7h1.34v13.07l-.67.67-.67-.67zm3.51-3h-5.68v-1.35h5.68zm-3.51-4.34v-10h1.34v10zM5.06 125.86a.67.67 0 0 1-.67-.67v-26a.67.67 0 0 1 .67-.67H7.9v9.35a1.5 1.5 0 0 0 3 0v-9.38h1.34v27.37zm45.56 10.85H18.07a2.84 2.84 0 0 1-2.84-2.84v-20.2h.67a1.5 1.5 0 0 0 0-3h-.67V98.49h5.68v10h-2.17v7.34h2.17v14.31l3.67 3.67 3.67-3.67v-14.3h2.17v-7.34h-2.17v-10h12.19v10h-2.17v7.34h2.17v14.31l3.67 3.67 3.67-3.67v-14.31h2.17v-7.34h-2.17v-10h5.68v12.19h-.67a1.5 1.5 0 0 0 0 3h.67v20.19a2.84 2.84 0 0 1-2.84 2.83zm13.68-11.52a.63.63 0 0 1-.58.67h-7.26V98.49h1.34v9.35a1.5 1.5 0 0 0 3 0v-9.35h2.93a.63.63 0 0 1 .58.67z"/>
  <path class="cls-1" d="M35.43 110.67h-2.17a1.5 1.5 0 0 0 0 3h2.17a1.5 1.5 0 1 0 0-3zM209.63 204h3.67l-5-23h2.44l-3.64-17h2.35l-8-36.8-8 36.8h2.35l-3.8 17h2.44l-5 23h3.67l-6.84 30h13.59v13a1.5 1.5 0 0 0 3 0v-13h13.59zm-12.75-3h-3.7l5-23h-2.46l3.64-17h-2.33l4.31-19.74 4.35 19.74h-2.33l3.64 17h-2.46l5 23h-3.7l6.84 30H190z"/>
  <path class="cls-1" d="M206.56 219a1.5 1.5 0 0 0 1.47-1.83l-2-8.85a1.5 1.5 0 0 0-2.93.65l2 8.85a1.5 1.5 0 0 0 1.46 1.18zM205.47 199.43a1.5 1.5 0 0 0 1.47-1.83l-2-8.85a1.5 1.5 0 0 0-2.93.65l2 8.85a1.5 1.5 0 0 0 1.46 1.18zM203.22 160.38a1.5 1.5 0 0 0 1.46-1.84l-1.1-4.76a1.5 1.5 0 1 0-2.92.68l1.1 4.76a1.5 1.5 0 0 0 1.46 1.16zM209.15 222.65a1.5 1.5 0 1 0-2.92.67l.85 3.68h-.25a1.5 1.5 0 0 0 0 3h4zM343 54.76h-13.8a13.87 13.87 0 0 0 2.36-5.17l.18-1-7.81-5.34-1.48-2.92a1.48 1.48 0 0 0 .48-.19l49.2-31.55-5.24-7.11-47.8 32.19-2.46-4.88-10.63 6.4 6.73 13.37.31 6.2h-17.42v6.64l-8.48-4.4-2.31 7.09 10.8 5.35v12.15l-6.55 14.18h61.32L343 75.1zM328.32 50a10.57 10.57 0 0 1-3.1 4.67l-.13.14h-2.61a19.78 19.78 0 0 0 4.94-5.43zm-7.6-13.75l45.43-30.63 1.63 2.21-46.51 29.82-.16.13-.71-1.42a1.48 1.48 0 0 0 .32-.15zm-10.79.13l5.43-3.26 6.2 12.26 3.37 2.3c-1.07 1.75-4 5.74-8.7 6.8l-.2.07-.34-6.72zm-21.45 26.17l.41-1.26 6.73 3.48v1.32zm57.65 30.22h-5.56v-.07l-1.81-5.79a1.5 1.5 0 0 0-2.86.89l1.55 5h-6.32V79.07a1.5 1.5 0 0 0-3 0v13.7h-7.33v-4.93a1.5 1.5 0 0 0-3 0v4.93h-6.67V78.52a1.5 1.5 0 0 0-3 0v14.25h-6.62l2.61-6.19v-3.92a1.5 1.5 0 0 0-3 0V86l-2.78 6.59a1.49 1.49 0 0 0-.06.21h-4.49l4.86-10.52V57.76h2.47v5.37a1.5 1.5 0 1 0 3 0v-5.37h13.69v6.71a1.5 1.5 0 0 0 3 0v-6.71h13.84v5.74a1.5 1.5 0 1 0 3 0v-5.74H340v17.86z"/>
  <path class="cls-1" d="M319.29 68.06a1.5 1.5 0 0 0-1.5 1.5v13.69a1.5 1.5 0 0 0 3 0V69.56a1.5 1.5 0 0 0-1.5-1.5zM309.61 60.75a1.5 1.5 0 0 0-1.5 1.5v10.87a1.5 1.5 0 1 0 3 0V62.25a1.5 1.5 0 0 0-1.5-1.5zM329.61 68.32a1.5 1.5 0 0 0-1.5 1.5v3.54a1.5 1.5 0 0 0 3 0v-3.54a1.5 1.5 0 0 0-1.5-1.5zM329.61 61a1.5 1.5 0 0 0-1.5 1.5v1.9a1.5 1.5 0 1 0 3 0v-1.89a1.5 1.5 0 0 0-1.5-1.51zM336.13 78.38a1.5 1.5 0 0 0-1.5 1.5v1.89a1.5 1.5 0 1 0 3 0v-1.89a1.5 1.5 0 0 0-1.5-1.5zM302.6 68.14a1.5 1.5 0 0 0-1.5 1.5v6.87a1.5 1.5 0 1 0 3 0v-6.87a1.5 1.5 0 0 0-1.5-1.5zM395.15 181.59a18.38 18.38 0 0 0 3.31 10.63 1.5 1.5 0 1 0 2.46-1.72 15.41 15.41 0 0 1-2.77-8.9c0-8.15 6.14-14.77 13.69-14.77s13.69 6.63 13.69 14.77a15.41 15.41 0 0 1-2.76 8.9 1.5 1.5 0 1 0 2.46 1.72 18.39 18.39 0 0 0 3.31-10.62c0-9.8-7.49-17.77-16.69-17.77s-16.7 7.97-16.7 17.76zM418.88 156a2 2 0 1 0-2-2 2 2 0 0 0 2 2zM404.78 156a2 2 0 1 0-2-2 2 2 0 0 0 2 2z"/>
  <path class="cls-1" d="M410.72 172.9a1.28 1.28 0 0 1 2.22 0 1.5 1.5 0 0 0 2.12-2.12 4.18 4.18 0 0 0-6.46 0 1.5 1.5 0 0 0 2.12 2.13zM418.34 178.76a1.5 1.5 0 0 0 1.06-2.56 4.18 4.18 0 0 0-6.46 0 1.5 1.5 0 0 0 2.12 2.13 1.28 1.28 0 0 1 2.22 0 1.5 1.5 0 0 0 1.06.43zM409.66 178.76a1.5 1.5 0 0 0 1.06-2.56 4.18 4.18 0 0 0-6.46 0 1.5 1.5 0 0 0 2.12 2.13 1.28 1.28 0 0 1 2.22 0 1.5 1.5 0 0 0 1.06.43zM411.83 180.09a5.1 5.1 0 0 0-3.23 1.52 1.5 1.5 0 0 0 2.12 2.13 1.28 1.28 0 0 1 2.22 0 1.5 1.5 0 0 0 2.12-2.12 5.1 5.1 0 0 0-3.23-1.53zM423.74 183.74a1.5 1.5 0 0 0 0-2.12 4.18 4.18 0 0 0-6.46 0 1.5 1.5 0 0 0 2.12 2.13 1.28 1.28 0 0 1 2.22 0 1.5 1.5 0 0 0 2.12 0zM403.16 180.09a5.1 5.1 0 0 0-3.23 1.52 1.5 1.5 0 0 0 2.12 2.13 1.28 1.28 0 0 1 2.22 0 1.5 1.5 0 1 0 2.12-2.12 5.1 5.1 0 0 0-3.23-1.53zM532 107.11c-11.73 0-21.28 14.92-21.28 33.26 0 17.47 8.66 31.82 19.62 33.15v31.23a1.5 1.5 0 0 0 3 0v-31.19c11.11-1.08 19.94-15.55 19.94-33.19-.02-18.37-9.56-33.26-21.28-33.26zm1.34 63.43v-26.82a1.43 1.43 0 0 0 .2-.11l3.2-2.66a1.5 1.5 0 1 0-1.92-2.3l-1.47 1.23v-9.25a1.5 1.5 0 0 0-3 0V157l-7.51-10a1.5 1.5 0 1 0-2.4 1.8l9.88 13.2v8.54c-9.3-1.4-16.62-14.37-16.62-30.13 0-16.69 8.2-30.26 18.28-30.26s18.28 13.58 18.28 30.26c0 15.91-7.48 29-16.94 30.14z"/>
  <path class="cls-1" d="M531.82 117.09a1.5 1.5 0 0 0-1.5 1.5v7.68a1.5 1.5 0 0 0 3 0v-7.68a1.5 1.5 0 0 0-1.5-1.5zM537.87 136.07a1.5 1.5 0 0 0 1.92 2.3l3.2-2.67a1.5 1.5 0 1 0-1.92-2.3zM538.89 162.46a12.77 12.77 0 0 1-2.61 2.11 1.5 1.5 0 0 0 1.54 2.57 15.79 15.79 0 0 0 3.23-2.6 1.5 1.5 0 1 0-2.16-2.08zM541.7 161.5a1.5 1.5 0 0 0 2.07-.48 31.41 31.41 0 0 0 4-10.64 1.5 1.5 0 0 0-2.95-.56 28.39 28.39 0 0 1-3.6 9.62 1.5 1.5 0 0 0 .48 2.06zM546.71 147.6h.12a1.5 1.5 0 0 0 1.49-1.38c.09-1.08.13-2.18.13-3.27a1.5 1.5 0 0 0-3 0c0 1 0 2-.12 3a1.5 1.5 0 0 0 1.38 1.65zM522.68 119.45a1.5 1.5 0 0 0-2.07.47 25.18 25.18 0 0 0-1.62 3 1.5 1.5 0 1 0 2.73 1.24 22.15 22.15 0 0 1 1.42-2.66 1.5 1.5 0 0 0-.46-2.05zM518.56 128.74a1.5 1.5 0 0 0-1.75 1.2 35.66 35.66 0 0 0-.6 6 1.5 1.5 0 0 0 1.48 1.52 1.5 1.5 0 0 0 1.5-1.48 32.58 32.58 0 0 1 .55-5.52 1.5 1.5 0 0 0-1.18-1.72zM488.6 70.4l.42-.69 3.09-4.71h28.19l3.53 5.4h16.54l-1.45-2.3-17.8-28.28-12.24-19.45-.88-1.42 4.91-7.83a1.5 1.5 0 1 0-2.54-1.59l-2.65 4.23v-3.44a1.5 1.5 0 0 0-3 0v3.42L502 9.52a1.5 1.5 0 0 0-2.54 1.6l4.89 7.76-12.71 20.31h-8.21a1.5 1.5 0 0 0-1.48 1.73l1.69 11L472 70.4zm-9.4-5.77l2.05 2.05 2.17-2.17 2.17 2.17.27-.27.15 1h-8.55zm33.55-18.5L508.5 39a1.48 1.48 0 0 0-.79-.64V24.13l13.81 21.93-1.2 1.19-2.17-2.17-2.15 2.17-2.17-2.17zm-8-6.93h-9.43l9.43-15zm17.74 23.27l-6.55-11 .07.07 2.17-2.17 2.17 2.17 2.85-2.83L531.56 62l-.41.41-2.15-2.14-2.17 2.17-2.17-2.17zm-20-20.27l-13.86 22.44-1.86-12.06 6.52-10.38zM494.07 62l12.13-18.57L518.34 62zM524 65.16l.65-.65 2.17 2.17 2.18-2.17 2.17 2.17 2-2 1.74 2.77h-9.49zm-38.82-23h4.58L486.07 48zm0 19.84l-1.77-1.76-2.17 2.17-.42-.42 3.49-5.56zM653.28 157.33l-1.06 1.06a5.44 5.44 0 0 0-1.52 4.31v8.68c0 1 0 1.58-.65 2.19l-25.49 25.49c-2.74 2.74-2.75 5.88 0 8.62l4.37 4.37a6.09 6.09 0 0 0 4.28 2 6.2 6.2 0 0 0 4.34-2.08L663 186.54c.62-.62 1.12-.65 2.19-.65h8.68a5.49 5.49 0 0 0 4.14-1.35l.19-.16.14-.16 8.5-8.5-26-26zm-17.86 52.57a3.4 3.4 0 0 1-2.2 1.21 3.26 3.26 0 0 1-2.16-1.17l-4.37-4.37c-1.57-1.57-1.57-2.8 0-4.38l24.43-24.43 8.73 8.73zm38.47-27h-8.68a6.15 6.15 0 0 0-3.11.62l-9-9a6.15 6.15 0 0 0 .62-3.11v-8.71-.7l20.88 20.88zm3.25-1.71l-21.74-21.74 5.47-5.47 21.74 21.74zM782.81 176L776 149h3.73l-5-18h2.63l-8.22-22a1.64 1.64 0 0 0-3 0l-8 22h2.6l-5.22 18h4l-6.74 27h13.53v12.6a1.5 1.5 0 0 0 3 0V176zm-19.59-30h-3.8l5.22-18h-2.3l5.27-14.41L773 128h-2.27l5 18h-3.63l6.9 27h-22.52z"/>
  <path class="cls-1" d="M769.56 148.78a1.5 1.5 0 0 0-1.14 1.79l2 8.85a1.5 1.5 0 0 0 2.93-.65l-2-8.85a1.5 1.5 0 0 0-1.79-1.14zM770.77 141.07a1.5 1.5 0 0 0 1.46-1.83l-2-8.85a1.5 1.5 0 1 0-2.93.65l2 8.85a1.5 1.5 0 0 0 1.47 1.18zM774.29 163.61a1.5 1.5 0 1 0-2.91.75l.94 3.64h-2.5a1.5 1.5 0 0 0 0 3h6.37zM658.73 161.6a1.5 1.5 0 0 0 2.12 0l2.17-2.17a1.5 1.5 0 1 0-2.12-2.12l-2.17 2.17a1.5 1.5 0 0 0 0 2.12zM662 164.85a1.5 1.5 0 0 0 2.12 0l2.17-2.17a1.5 1.5 0 1 0-2.12-2.12l-2.17 2.17a1.5 1.5 0 0 0 0 2.12zM665.23 168.1a1.5 1.5 0 0 0 2.12 0l2.17-2.17a1.5 1.5 0 0 0-2.12-2.12l-2.17 2.19a1.5 1.5 0 0 0 0 2.1zM668.49 171.36a1.5 1.5 0 0 0 2.12 0l2.17-2.17a1.5 1.5 0 0 0-2.12-2.12l-2.17 2.17a1.5 1.5 0 0 0 0 2.12zM671.74 174.61a1.5 1.5 0 0 0 2.12 0l2.17-2.17a1.5 1.5 0 0 0-2.12-2.12l-2.17 2.17a1.5 1.5 0 0 0 0 2.12zM675 177.87a1.5 1.5 0 0 0 2.12 0l2.17-2.17a1.5 1.5 0 0 0-2.12-2.12l-2.17 2.17a1.5 1.5 0 0 0 0 2.12zM649.36 187.23a3.68 3.68 0 0 0-5.19 0l-3.26 3.26a3.67 3.67 0 0 0 5.19 5.19l3.25-3.25a3.67 3.67 0 0 0 0-5.19zm-2.12 2.12a.67.67 0 0 1 0 .95l-1.11 1.11-.95-.95 1.11-1.11a.67.67 0 0 1 .95 0zm-4.2 4.2a.67.67 0 0 1 0-.95l.95.95a.67.67 0 0 1-.99 0zM678.2 160.51l6.51-6.51a1.5 1.5 0 0 0-2.12-2.12l-6.51 6.51a1.5 1.5 0 1 0 2.12 2.12zM686.23 161.36l-4.34 2.17a1.5 1.5 0 0 0 1.34 2.68l4.34-2.17a1.5 1.5 0 1 0-1.34-2.68zM671.72 155.53a1.5 1.5 0 0 0 1.34-.83l2.17-4.34a1.5 1.5 0 0 0-2.68-1.34l-2.17 4.34a1.5 1.5 0 0 0 1.34 2.17zM343.87 266.88l-2.72-1.44-12.63-14.28L322 256l6 10.87h-12.71a18.86 18.86 0 1 0 3.09 37.46 1.5 1.5 0 0 0 .83.25h24.28a18.86 18.86 0 0 0 .38-37.71zm-18.39 34.71a18.94 18.94 0 0 0 7.73-10h5.94a1.5 1.5 0 0 0 0-3h-5.23a18.74 18.74 0 0 0-2.26-12.19H337a1.5 1.5 0 0 0 0-3h-7.45a19.07 19.07 0 0 0-2.46-2.37 1.5 1.5 0 0 0-1.88 2.34 15.86 15.86 0 1 1-9.91-3.48H333l-7.1-13 2.19-1.65 11.16 12.62 3.86 2h.37a15.87 15.87 0 0 1 15.78 14.36h-2.76a1.5 1.5 0 0 0 0 3h2.76a15.75 15.75 0 0 1-3 7.85H350a1.5 1.5 0 0 0 0 3h3.42a15.77 15.77 0 0 1-9.92 3.51z"/>
  <path class="cls-1" d="M320.24 274.41a1.5 1.5 0 1 0-1.2 2.75 9.36 9.36 0 0 1 5.19 5.79 1.5 1.5 0 0 0 1.43 1.05 1.48 1.48 0 0 0 .45-.07 1.5 1.5 0 0 0 1-1.88 12.35 12.35 0 0 0-6.87-7.64zM324.64 285.73a9.41 9.41 0 0 1-6 8.73 1.5 1.5 0 0 0 .54 2.9 1.48 1.48 0 0 0 .54-.1 12.42 12.42 0 0 0 7.93-11.53 1.5 1.5 0 0 0-3 0zM315.29 295.08a9.25 9.25 0 0 1-4.34-1.07 1.5 1.5 0 1 0-1.39 2.66 12.39 12.39 0 0 0 5.74 1.41 1.5 1.5 0 0 0 0-3zM308.64 277a1.5 1.5 0 0 0-2.12 0 12.35 12.35 0 0 0-1.11 16.1 1.5 1.5 0 1 0 2.4-1.8 9.35 9.35 0 0 1 .84-12.19 1.5 1.5 0 0 0-.01-2.11zM312.06 276.87a1.51 1.51 0 0 0 .45-.07 9.34 9.34 0 0 1 2.78-.42 1.5 1.5 0 0 0 0-3 12.34 12.34 0 0 0-3.67.55 1.5 1.5 0 0 0 .45 2.93zM317.17 287.86a2.91 2.91 0 0 1-3.76 0 1.5 1.5 0 0 0-2 2.25 5.84 5.84 0 0 0 7.73 0 1.5 1.5 0 1 0-2-2.25zM311 287.23a1.5 1.5 0 0 0 1.5-1.5 2.83 2.83 0 0 1 .71-1.87 1.5 1.5 0 0 0-2.25-2 5.83 5.83 0 0 0-1.46 3.86 1.5 1.5 0 0 0 1.5 1.51zM321.13 285.73a5.85 5.85 0 0 0-5.84-5.84 1.5 1.5 0 0 0 0 3 2.84 2.84 0 0 1 2.84 2.84 1.5 1.5 0 1 0 3 0zM352.17 284.23H350a1.5 1.5 0 0 0 0 3h2.17a1.5 1.5 0 0 0 0-3zM339.15 279.89H337a1.5 1.5 0 0 0 0 3h2.17a1.5 1.5 0 0 0 0-3zM353.67 277.05a1.5 1.5 0 0 0-1.5-1.5h-6.51a1.5 1.5 0 0 0 0 3h6.51a1.5 1.5 0 0 0 1.5-1.5zM337 297.25h-4.34a1.5 1.5 0 0 0 0 3H337a1.5 1.5 0 0 0 0-3zM299.69 200a1.5 1.5 0 1 0 3 0v-17.54L315 175.3a1.5 1.5 0 0 0-1.51-2.59l-10.8 6.29v-7.34l13.31-7.19a1.5 1.5 0 1 0-1.42-2.64l-11.89 6.4v-7.45l10.07-5.54a1.5 1.5 0 0 0-1.45-2.63l-8.62 4.74v-13.72a1.5 1.5 0 0 0-3 0v13.73l-8.62-4.74a1.5 1.5 0 0 0-1.45 2.63l10.07 5.54v7.45l-11.89-6.4a1.5 1.5 0 1 0-1.42 2.64l13.31 7.17V179l-10.76-6.28a1.5 1.5 0 1 0-1.51 2.59l12.27 7.16v7c-10.11-2.55-15.44-10.49-15.44-23.08 0-11.59 8.65-21.7 17-27.53C312 145 318.13 155 318.13 166.41s-4.53 19.26-13.11 22.38a1.5 1.5 0 1 0 1 2.82c9.87-3.59 15.09-12.31 15.09-25.2s-7-23.94-19.22-30.6l-.8-.43-.75.5c-9.24 6.16-19.11 17.41-19.11 30.54 0 14.24 6.55 23.47 18.44 26.15zM158 62.14l-5.42 5.42L141.06 56V43h12.19v4.34h21.07L169.38 35l4.94-12.35h-15.9v-4.36h-20.36V56l-25.59 25.64a1.5 1.5 0 1 0 2.12 2.12l7.62-7.62 5.42 5.42 6.51-6.51 5.42 5.42 6.51-6.47 4.34 4.34 4.34-4.34 8.68 8.68 5.42-5.42 6.53 6.53a1.5 1.5 0 0 0 2.12-2.12zm11.89-36.51l-3.14 7.85h-5.49a1.5 1.5 0 0 0 0 3h5.49l3.14 7.85h-13.64V43h2.17V25.63zm-28.83-4.34h14.36v7.85H143.9a1.5 1.5 0 0 0 0 3h11.52v7.54a1.47 1.47 0 0 0-1.76.31h-12.6zm11.56 50.57l-2.22 2.22-4.34-4.34-6.51 6.51-5.42-5.42-6.51 6.51-3.3-3.3 15.23-15.23zm10.8 6.56l-8.73-8.73 3.3-3.3 8.73 8.73zM496.22 289.75a26.39 26.39 0 0 0-37-37l-13.88-8.92 8.93 13.88a26.39 26.39 0 0 0 21 42.42 26.12 26.12 0 0 0 16-5.41l14 9zm-21-39.43a23.41 23.41 0 0 1 19.26 36.74l-12.54-19.51-.18-.27-19.88-12.78a23.48 23.48 0 0 1 13.35-4.17zm0 46.83A23.42 23.42 0 0 1 456 260.42l12.6 19.6.18.27L488.52 293a23.13 23.13 0 0 1-13.29 4.16zm-4.31-19l-15.62-24.29 24.29 15.62 15.62 24.29z"/>
  <path class="cls-1" d="M475.26 269a4.75 4.75 0 1 0 4.75 4.75 4.76 4.76 0 0 0-4.75-4.75zm0 6.51a1.75 1.75 0 1 1 1.75-1.75 1.76 1.76 0 0 1-1.75 1.79zM454.8 270.92a1.52 1.52 0 0 0 .32 0 1.5 1.5 0 0 0 1.46-1.19 19.1 19.1 0 0 1 1.06-3.37 1.5 1.5 0 1 0-2.77-1.16 22.06 22.06 0 0 0-1.23 3.91 1.5 1.5 0 0 0 1.16 1.81zM467.12 253.24a1.5 1.5 0 1 0 1.11 2.79 19 19 0 0 1 5.54-1.28v.61a1.5 1.5 0 1 0 3 0v-3.67h-1.5a22 22 0 0 0-8.15 1.55zM495.73 276.67a1.51 1.51 0 0 0-1.78 1.15 19 19 0 0 1-1.06 3.37 1.5 1.5 0 0 0 2.77 1.16 22.07 22.07 0 0 0 1.23-3.91 1.5 1.5 0 0 0-1.16-1.77zM483.41 294.36a1.5 1.5 0 1 0-1.11-2.79 19 19 0 0 1-5.54 1.28v-.61a1.5 1.5 0 1 0-3 0v3.67h1.5a22 22 0 0 0 8.15-1.55zM456.21 275.29h.61a1.5 1.5 0 0 0 0-3h-3.67v1.5a22.22 22.22 0 0 0 17.46 21.62 1.53 1.53 0 0 0 .32 0 1.5 1.5 0 0 0 .31-3 19.21 19.21 0 0 1-15.03-17.12zM494.31 272.29h-.61a1.5 1.5 0 0 0 0 3h3.67v-1.5a22.22 22.22 0 0 0-17.46-21.62 1.5 1.5 0 1 0-.63 2.93 19.21 19.21 0 0 1 15.03 17.19zM106.35 216.18a1.5 1.5 0 0 0-3 0 10.44 10.44 0 0 1-10.43 10.43 1.5 1.5 0 0 0 0 3 13.45 13.45 0 0 0 13.43-13.43zM89.13 225.9a10.42 10.42 0 0 1-3.6-2.36 1.5 1.5 0 1 0-2.12 2.12 13.4 13.4 0 0 0 4.63 3 1.5 1.5 0 1 0 1.09-2.79zM424 140.79l-.67-1.34-1.34.67a8.38 8.38 0 0 0-3.44 3.81 32 32 0 0 0-13.48 0 8.38 8.38 0 0 0-3.44-3.81l-1.34-.67-.67 1.34a16 16 0 0 0-1.36 8.95c-2.43 2.95-12.9 16.25-12.9 26.44s2.83 13.41 3.75 14.14a10.91 10.91 0 0 0 3.39 2.31 17.61 17.61 0 0 0 2.92 6.34l.13.15a13.28 13.28 0 0 0 3.23 2.39 6 6 0 0 0 5.43 4.38 5.58 5.58 0 0 0 4.64-2.74 8 8 0 0 0 3 .57 8.19 8.19 0 0 0 3-.56 5.58 5.58 0 0 0 4.63 2.73c2.62 0 4.84-2.06 5.58-4.88a7.9 7.9 0 0 0 3-2.09l.14-.17a18.35 18.35 0 0 0 2.69-6.55 14.89 14.89 0 0 0 3.56-1.74c.66-.44 3.92-3.18 3.92-14.26 0-10.18-10.47-23.49-12.9-26.44a16 16 0 0 0-1.47-8.97zm-21.33 61.41a3.41 3.41 0 0 1-.47-.56l-.08-.13a4.19 4.19 0 0 1-.3-.57l-.06-.14a4.82 4.82 0 0 1-.22-.69v-.1a5.2 5.2 0 0 1-.11-.87v-.19c0-2.13 1.3-3.92 2.84-3.92s2.84 1.8 2.84 3.92a5.1 5.1 0 0 1 0 .56 4.15 4.15 0 0 1-1.5 2.89 2.19 2.19 0 0 1-1.3.47 2.3 2.3 0 0 1-1.64-.67zm16.75.67c-1.54 0-2.84-1.8-2.84-3.92s1.3-3.92 2.84-3.92 2.84 1.8 2.84 3.92-1.26 3.92-2.83 3.92zm15.86-26.7c0 9.57-2.61 11.79-2.64 11.81a10 10 0 0 1-1.27.72c.67-6 .1-13.37-.69-21.35a1.5 1.5 0 0 0-3 .3c1.21 12.11 2 23.47-2 29.27-.19.19-.39.37-.59.55-.58-3.1-2.91-5.43-5.7-5.43-3.22 0-5.84 3.11-5.84 6.92a8.17 8.17 0 0 0 .12 1.4 5.21 5.21 0 0 1-1.87.36 5 5 0 0 1-1.87-.37 8.17 8.17 0 0 0 .12-1.39c0-3.82-2.62-6.92-5.84-6.92-2.86 0-5.24 2.45-5.74 5.68-.27-.22-.52-.44-.72-.64-4.56-6.1-3.48-18.25-1.82-29.35a1.5 1.5 0 0 0-3-.45c-1.13 7.55-1.93 15.1-1.18 21.43a6.87 6.87 0 0 1-.55-.51l-.2-.2s-2.64-2.24-2.64-11.81c0-10.16 12.53-24.91 12.66-25.06l.5-.59-.19-.75a11.36 11.36 0 0 1 .28-5.76 7.49 7.49 0 0 1 1.18 2.25l.55 1.59 1.53-.71s2.05-.93 6.94-.93 6.92.93 6.92.93l1.55.77.55-1.64A7.48 7.48 0 0 1 422 144a11.3 11.3 0 0 1 .27 5.76l-.19.75.5.59c.17.16 12.7 14.9 12.7 25.07z"/>
  <path class="cls-1" d="M411.83 160.15a3.81 3.81 0 0 0 3.67-3.67c0-1.12-1-2.31-3.67-2.31s-3.67 1.2-3.67 2.31a3.81 3.81 0 0 0 3.67 3.67zM118 238.71l-1.8-5.91a2.58 2.58 0 0 0-3.08-1.91l-10.46 2.49a20.39 20.39 0 0 0 10.2-17.2c0-9.12-3.9-14.37-8-19.94a54.83 54.83 0 0 1-7.28-12l-.86-2.07-1.58 1.58c-3.32 3.32-5.47 8.78-6.69 12.85a27.56 27.56 0 0 1-.51-5.28v-3.62l-2.56 2.56C79.71 195.94 73 205 73 216.18A20.33 20.33 0 0 0 82.52 233l-9.84-2.09a2.59 2.59 0 0 0-3.06 2l-.9 4.24a2.58 2.58 0 0 0 2 3.07l1.79.38-1.18.28a2.93 2.93 0 0 0-2.13 3.71l1.44 4.74a2.58 2.58 0 0 0 3.05 1.91l23-5.49 16.42 3.49a2.57 2.57 0 0 0 .53.06 2.59 2.59 0 0 0 2.53-2l.45-2.1v-.05-.08l.43-2a2.57 2.57 0 0 0-.41-2 1.78 1.78 0 0 0 1.36-2.36zm-42-22.53c0-8.65 4.55-16 9.14-21.25a25.83 25.83 0 0 0 2.12 7.95l2 4 .8-4.43c0-.1 1.73-9.32 5.73-14.84a64.42 64.42 0 0 0 6.65 10.4c4 5.38 7.43 10 7.43 18.16 0 8.87-8.07 16.94-16.94 16.94S76 225 76 216.18zm-3.51 17.75l15.38 3.27-7.87 1.9-8.31-1.77zm42.29 4.41l-41.32 9.84L72 244l41.4-10.09v.1zM114 243l-.62 2.93-.05.25-10-2.13 7.91-1.91 2.86.61zM84.79 184.43a2 2 0 1 1 2-2 2 2 0 0 1-2 2zM72.79 195.43a2 2 0 1 1 2-2 2 2 0 0 1-2 2zM106.79 189.43a2 2 0 1 1 2-2 2 2 0 0 1-2 2zM73.79 183.43a2 2 0 1 1 2-2 2 2 0 0 1-2 2z"/>
</svg>
