<svg id="Layer_1" data-name="Layer 1" xmlns="http://www.w3.org/2000/svg" viewBox="0 0 2056.92 319.33"><defs><style>.cls-1{fill:#fdbf1c;}.cls-2{fill:#0a090c;}</style></defs><title>logo</title><rect class="cls-1" x="562.77" y="221.65" width="1494.15" height="22.76"/><path class="cls-2" d="M145.09,158.35H255.47v25H214.05V305.44H186.51V183.33H145.09Z"/><path class="cls-2" d="M393.38,158.35V305.44H365.84V244.6H306.91v60.84H279.8V158.35h27.11V220h58.92v-61.7Z"/><path class="cls-2" d="M430.09,158.35H521v24.34H457.2V220.9h55.93V245H457.2V281.1h66v24.34H430.09Z"/><path class="cls-2" d="M714,305.44H689l-56.79-96.71v96.71H605.14V158.35h25.41L686.69,254V158.35H714Z"/><path class="cls-2" d="M750.73,158.35h90.95v24.34H777.84V220.9h55.93V245H777.84V281.1h66v24.34H750.73Z"/><path class="cls-2" d="M887.14,158.35l28.61,102.47,28.61-102.47h28.39L928.13,305.44H903.58L858.75,158.35Z"/><path class="cls-2" d="M995.59,158.35h90.95v24.34H1022.7V220.9h55.93V245H1022.7V281.1h66v24.34H995.59Z"/><path class="cls-2" d="M1223.8,305.44h-32.88l-34.58-52.3H1145v52.3H1117.7V158.35h58.92c32.45,0,47,23.7,47,47.61,0,21.13-11.32,41.84-37.36,46.11ZM1145,182.69V228.8h29.46c14.3,0,20.71-12,20.71-22.84,0-10.67-6.19-23.27-19.85-23.27Z"/><path class="cls-2" d="M1392.88,158.35h29.67l-50,147.09h-22L1328,222l-22.2,83.47h-22.2L1234,158.35h29.46l31.38,102.47,22.42-82h21.78l22.2,82Z"/><path class="cls-2" d="M1505,156.64c41.84,0,74.72,33.73,74.72,75.57,0,41.42-32.88,75.36-74.72,75.36s-74.51-33.94-74.51-75.36C1430.45,190.37,1463.11,156.64,1505,156.64Zm0,124c26.47,0,47.39-21.56,47.39-48.46s-20.92-48.67-47.39-48.67c-26.69,0-47.39,21.78-47.39,48.67S1478.27,280.68,1505,280.68Z"/><path class="cls-2" d="M1673,156.64c41.84,0,74.72,33.73,74.72,75.57,0,41.42-32.88,75.36-74.72,75.36s-74.51-33.94-74.51-75.36C1598.45,190.37,1631.12,156.64,1673,156.64Zm0,124c26.47,0,47.39-21.56,47.39-48.46s-20.92-48.67-47.39-48.67c-26.69,0-47.39,21.78-47.39,48.67S1646.27,280.68,1673,280.68Z"/><path class="cls-2" d="M1775.43,305.44V158.35h57.43c42.06,0,66.39,32,66.39,73.87,0,41.63-24.34,73.23-66.39,73.23Zm27.33-25h30.1c26,0,39.07-21.78,39.07-48.25,0-26.69-13-48.89-39.07-48.89h-30.1Z"/><path class="cls-2" d="M1946.64,262.53c.43,10.67,9.61,20.71,25.41,20.71,14.73,0,23.7-7.69,24.34-17.72.64-9.82-6-16.23-20.28-20.07l-18.15-4.7c-32-9.39-37.15-28-37.15-41,0-25.83,22.42-43.12,49.53-43.12,27.75,0,48.89,16.87,48.89,44.41H1991.9c0-11.53-8.33-19.21-22-19.21-12.17,0-22,6.83-22,17.29,0,4.7,1.71,12.6,17.51,16.87l18.15,5.34c32.88,9,41.42,27.54,40.13,44.83-1.28,26.47-24.76,41.63-51.66,41.63-31.38,0-52.73-20.07-52.73-45.26Z"/><polygon class="cls-2" points="131.67 305.33 103.67 305.33 103.67 266.33 4.2 266.33 62.7 196.33 25.38 196.33 80.98 131.33 49.48 131.33 143.04 4.37 236.28 131.33 160.67 131.33 160.67 105.33 184.93 105.33 143.01 48.25 100.94 105.33 137.43 105.33 81.83 170.33 118.31 170.33 59.81 240.33 131.67 240.33 131.67 305.33"/><polygon class="cls-2" points="240.05 4.09 199.9 58.65 216.03 80.6 240 48.03 281.97 105.33 234.19 105.33 253.28 131.33 333.24 131.33 240.05 4.09"/></svg>