<svg id="Layer_1" data-name="Layer 1" xmlns="http://www.w3.org/2000/svg" viewBox="0 0 25.03 25.03"><defs><style>.cls-1{fill:#0a090c;}</style></defs><title>dribbble</title><path class="cls-1" d="M12.51.57A11.94,11.94,0,1,0,24.45,12.51,11.94,11.94,0,0,0,12.51.57Zm7.58,5.5a9.9,9.9,0,0,1,2.34,5.78,49.58,49.58,0,0,0-6.79.08c-.26-.66-.53-1.31-.82-1.93A12,12,0,0,0,20.09,6.08ZM12.51,2.57a9.9,9.9,0,0,1,6.35,2.29A12.29,12.29,0,0,1,14,8.31a24.49,24.49,0,0,0-3.9-5.43A9.89,9.89,0,0,1,12.51,2.57ZM8,3.65A24,24,0,0,1,12,9a26.17,26.17,0,0,1-7.57,1.08c-.52,0-1,0-1.54,0A10,10,0,0,1,8,3.65ZM2.58,12q.85,0,1.72,0a29.44,29.44,0,0,0,8.56-1.33q.35.74.67,1.51a5.72,5.72,0,0,0-.89.27,14.86,14.86,0,0,0-7.59,6.56,9.91,9.91,0,0,1-2.49-6.57C2.56,12.36,2.57,12.2,2.58,12Zm9.93,10.43a9.89,9.89,0,0,1-6.1-2.1,13.69,13.69,0,0,1,6.67-6.14,5.59,5.59,0,0,1,1.08-.33c.35,1,.67,2,.95,3.06A35.74,35.74,0,0,1,16,21.81,9.88,9.88,0,0,1,12.51,22.47Zm5.38-1.59A35.89,35.89,0,0,0,17,16c-.21-.81-.46-1.59-.71-2.36a42.77,42.77,0,0,1,6.15,0A10,10,0,0,1,17.89,20.88Z"/></svg>