<svg id="Layer_1" data-name="Layer 1" xmlns="http://www.w3.org/2000/svg" viewBox="0 0 784 305"><defs><style>.cls-1{fill:#6a5816;}</style></defs><title>hero-icons-dark</title><path class="cls-1" d="M699,54.84c-2.59,1.56-3.37,4.51-3.6,6l-.76.46a6.35,6.35,0,0,0,.07-1c-.07-4-3.87-6.5-4-6.6l-.84-.54-.82.57c-.16.11-3.87,2.73-3.81,6.74a7.76,7.76,0,0,0,2.3,5.12l-2.17,1.3a6.35,6.35,0,0,0,.07-1c-.07-4-3.87-6.5-4-6.6l-.84-.54-.82.57A9.47,9.47,0,0,0,676,64.94v-7a9.64,9.64,0,0,0,2.07.24,7,7,0,0,0,3.52-.89c3.49-2,3.82-6.54,3.83-6.73l.06-1-.9-.44c-.17-.09-4.28-2.06-7.76-.06a6.37,6.37,0,0,0-.83.58V47.09a9.64,9.64,0,0,0,2.07.24,7,7,0,0,0,3.52-.89c3.49-2,3.82-6.54,3.83-6.73l.06-1-.9-.44c-.17-.09-4.28-2.06-7.76-.06a6.37,6.37,0,0,0-.83.58v-.89c1.12-.95,3.25-3.14,3.25-6.16,0-4-3.76-6.56-3.92-6.67l-.83-.55-.83.55c-.16.11-3.92,2.66-3.92,6.67,0,3,2.13,5.21,3.25,6.16v.88a6.35,6.35,0,0,0-.82-.57c-3.47-2-7.57,0-7.74.06l-.9.44.06,1c0,.19.34,4.73,3.82,6.73a7,7,0,0,0,3.52.89,9.57,9.57,0,0,0,2.06-.24v2.53a6.35,6.35,0,0,0-.82-.57h0c-3.47-2-7.57,0-7.74.06l-.9.44.06,1c0,.19.34,4.73,3.82,6.73a7,7,0,0,0,3.52.89,9.57,9.57,0,0,0,2.06-.24v6.88a9.51,9.51,0,0,0-3.7-5.57l-.82-.57-.84.54c-.16.1-4,2.6-4,6.62a6.37,6.37,0,0,0,.07,1l-2.17-1.31a7.82,7.82,0,0,0,2.32-5.14c.08-4-3.64-6.64-3.8-6.75l-.82-.57-.84.54c-.16.1-4,2.6-4,6.62h0a6.38,6.38,0,0,0,.07,1l-.77-.46c-.23-1.45-1-4.41-3.6-6-3.46-2.08-7.45-.09-7.62,0l-.83.42v.93c0,.19.07,4.73,3.55,6.81a7,7,0,0,0,3.65,1,10.44,10.44,0,0,0,3.3-.57l.76.46a6.35,6.35,0,0,0-.91.41c-3.51,1.94-3.92,6.47-3.93,6.67l-.08,1,.89.46a10.43,10.43,0,0,0,4.35,1,6.9,6.9,0,0,0,3.38-.83,7.76,7.76,0,0,0,3.44-4.44l2.16,1.3a6.35,6.35,0,0,0-.91.41h0c-3.51,1.94-3.92,6.47-3.93,6.67l-.08,1,.89.46a10.43,10.43,0,0,0,4.35,1,6.91,6.91,0,0,0,3.38-.83,7.77,7.77,0,0,0,3.44-4.44L673,76V96.5a1.5,1.5,0,0,0,3,0V66.88a8.93,8.93,0,0,0,3.38,5.31c.26,1.39,1.12,4.45,3.84,6a6.92,6.92,0,0,0,3.4.84A10.4,10.4,0,0,0,691,78l.89-.46-.08-1c0-.19-.43-4.73-3.94-6.68a6.38,6.38,0,0,0-.93-.41l2.17-1.31a7.81,7.81,0,0,0,3.45,4.46,6.92,6.92,0,0,0,3.4.84,10.4,10.4,0,0,0,4.34-1l.89-.46-.08-1c0-.19-.43-4.73-3.94-6.68a6.38,6.38,0,0,0-.93-.41l.77-.46a10.45,10.45,0,0,0,3.31.58,7,7,0,0,0,3.65-1c3.47-2.08,3.54-6.65,3.54-6.85v-.94l-.84-.42C706.47,54.71,702.48,52.76,699,54.84Zm-20.69-3.2a5.18,5.18,0,0,1,3.91-.22,4.34,4.34,0,0,1-6.05,3.47A5.13,5.13,0,0,1,678.34,51.64Zm0-10.85a5.18,5.18,0,0,1,3.91-.22,5.13,5.13,0,0,1-2.14,3.25,5.18,5.18,0,0,1-3.91.22A5.13,5.13,0,0,1,678.34,40.8Zm-3.83-12.54a5.13,5.13,0,0,1,1.75,3.47,2.18,2.18,0,1,1-3.51,0A5.14,5.14,0,0,1,674.51,28.25Zm-5.57,15.58a5.13,5.13,0,0,1-2.13-3.26,4.32,4.32,0,0,1,6,3.47A5.14,5.14,0,0,1,668.93,43.83Zm0,10.85a5.14,5.14,0,0,1-2.13-3.26,4.32,4.32,0,0,1,6,3.47A5.14,5.14,0,0,1,668.93,54.68Zm-.52,7.74a5.14,5.14,0,0,1,1.69,3.51,5.19,5.19,0,0,1-1.83,3.47,5.13,5.13,0,0,1-1.69-3.51A5.18,5.18,0,0,1,668.42,62.42Zm-9.3-5.59a5.13,5.13,0,0,1,1.69,3.51A5.18,5.18,0,0,1,659,63.81a5.14,5.14,0,0,1-1.69-3.51A5.19,5.19,0,0,1,659.12,56.84Zm-12.48,3.58a4.79,4.79,0,0,1-2-3.26,4.82,4.82,0,0,1,3.78.25,5.13,5.13,0,0,1,2.07,3.29A5.13,5.13,0,0,1,646.64,60.42Zm8.41,9.51a5.13,5.13,0,0,1-3.89.15,4.32,4.32,0,0,1,6.08-3.37A5.14,5.14,0,0,1,655.05,69.93Zm9.3,5.59a5.14,5.14,0,0,1-3.89.15,5.14,5.14,0,0,1,2.19-3.22h0a5.13,5.13,0,0,1,3.89-.15A5.13,5.13,0,0,1,664.35,75.51Zm6.43-4.39a8.22,8.22,0,0,0,2.22-4.2v5.53Zm19.13-14.26a5.13,5.13,0,0,1,1.81,3.44h0a2.18,2.18,0,1,1-3.51.06A5.13,5.13,0,0,1,689.92,56.87Zm-9.3,5.59a5.13,5.13,0,0,1,1.81,3.44,2.18,2.18,0,1,1-3.51.06A5.13,5.13,0,0,1,680.62,62.45Zm8,13.24a4.34,4.34,0,0,1-6.09-3.4,5.13,5.13,0,0,1,3.89.16A5.19,5.19,0,0,1,688.58,75.69Zm9.3-5.59a4.34,4.34,0,0,1-6.09-3.4,5.13,5.13,0,0,1,3.89.16A5.19,5.19,0,0,1,697.87,70.11Zm4.5-9.69a5.14,5.14,0,0,1-3.88.29,5.14,5.14,0,0,1,2.07-3.29,4.88,4.88,0,0,1,3.77-.28A4.81,4.81,0,0,1,702.38,60.42Z"/><path class="cls-1" d="M63.72,95.49H47.78V94.15H51.7a5.43,5.43,0,0,0,4.6-3,15.58,15.58,0,0,0,0-12.14,5.5,5.5,0,0,0-4.62-3H47.78V73.79H40.44V76H28.25V73.79H20.91V76H17a5.78,5.78,0,0,0-4.6,3,15.55,15.55,0,0,0,0,12.21,5.56,5.56,0,0,0,4.58,3h3.92v1.34H5.06a3.67,3.67,0,0,0-3.67,3.67v26a3.67,3.67,0,0,0,3.67,3.67h7.18v5a5.85,5.85,0,0,0,5.84,5.84H50.62a5.85,5.85,0,0,0,5.84-5.84v-5h7.26a3.63,3.63,0,0,0,3.58-3.67v-26A3.63,3.63,0,0,0,63.72,95.49Zm-18.94,0H43.44V94.15h1.34Zm-1.34,20.36h1.34v13.07l-.67.67-.67-.67Zm3.51-3H41.27V111.5h5.68Zm-3.51-4.34v-10h1.34v10Zm-3-13H28.25V94.14H40.44ZM18.07,91.15H17a2.68,2.68,0,0,1-1.91-1.34,11.88,11.88,0,0,1-.93-4.75A12.11,12.11,0,0,1,15,80.37h0A2.82,2.82,0,0,1,17,79h6.92V76.79h1.34V79H43.44V76.79h1.34V79H51.7a2.52,2.52,0,0,1,1.91,1.34,12.64,12.64,0,0,1,0,9.54,2.49,2.49,0,0,1-1.89,1.3H47.78V81.8a1.5,1.5,0,0,0-3,0v9.35H43.44V81.8a1.5,1.5,0,0,0-3,0v9.35H28.25V81.8a1.5,1.5,0,0,0-3,0v9.34H23.91V81.8a1.5,1.5,0,0,0-3,0v9.34Zm5.84,3h1.34v1.34H23.91Zm0,21.7h1.34v13.07l-.67.67-.67-.67Zm3.51-3H21.74V111.5h5.68Zm-3.51-4.34v-10h1.34v10ZM5.06,125.86a.67.67,0,0,1-.67-.67v-26a.67.67,0,0,1,.67-.67H7.9v9.35a1.5,1.5,0,0,0,3,0V98.49h1.34v27.37Zm45.56,10.85H18.07a2.84,2.84,0,0,1-2.84-2.84V113.67h.67a1.5,1.5,0,0,0,0-3h-.67V98.49h5.68v10H18.74v7.34h2.17v14.31l3.67,3.67,3.67-3.67V115.84h2.17V108.5H28.25v-10H40.44v10H38.27v7.34h2.17v14.31l3.67,3.67,3.67-3.67V115.84h2.17V108.5H47.78v-10h5.68v12.19h-.67a1.5,1.5,0,0,0,0,3h.67v20.19A2.84,2.84,0,0,1,50.62,136.71ZM64.3,125.19a.63.63,0,0,1-.58.67H56.46V98.49h1.34v9.35a1.5,1.5,0,0,0,3,0V98.49h2.93a.63.63,0,0,1,.58.67Z"/><path class="cls-1" d="M35.43,110.67H33.26a1.5,1.5,0,0,0,0,3h2.17a1.5,1.5,0,1,0,0-3Z"/><path class="cls-1" d="M209.63,204h3.67l-5-23h2.44l-3.64-17h2.35l-8-36.8-8,36.8h2.35L192,181h2.44l-5,23h3.67l-6.84,30h13.59v13a1.5,1.5,0,0,0,3,0V234h13.59Zm-12.75-3h-3.7l5-23h-2.46l3.64-17h-2.33l4.31-19.74L205.69,161h-2.33L207,178h-2.46l5,23h-3.7l6.84,30H190Z"/><path class="cls-1" d="M206.56,219a1.5,1.5,0,0,0,1.47-1.83l-2-8.85a1.5,1.5,0,0,0-2.93.65l2,8.85A1.5,1.5,0,0,0,206.56,219Z"/><path class="cls-1" d="M205.47,199.43a1.5,1.5,0,0,0,1.47-1.83l-2-8.85a1.5,1.5,0,0,0-2.93.65l2,8.85A1.5,1.5,0,0,0,205.47,199.43Z"/><path class="cls-1" d="M203.22,160.38a1.5,1.5,0,0,0,1.46-1.84l-1.1-4.76a1.5,1.5,0,1,0-2.92.68l1.1,4.76A1.5,1.5,0,0,0,203.22,160.38Z"/><path class="cls-1" d="M209.15,222.65a1.5,1.5,0,1,0-2.92.67l.85,3.68h-.25a1.5,1.5,0,0,0,0,3h4Z"/><path class="cls-1" d="M343,54.76h-13.8a13.87,13.87,0,0,0,2.36-5.17l.18-1-7.81-5.34-1.48-2.92a1.48,1.48,0,0,0,.48-.19l49.2-31.55-5.24-7.11-47.8,32.19-2.46-4.88L306,35.19l6.73,13.37.31,6.2H295.62V61.4L287.14,57l-2.31,7.09,10.8,5.35V81.59l-6.55,14.18h61.32L343,75.1ZM328.32,50a10.57,10.57,0,0,1-3.1,4.67l-.13.14h-2.61a19.78,19.78,0,0,0,4.94-5.43Zm-7.6-13.75L366.15,5.62l1.63,2.21L321.27,37.65l-.16.13-.71-1.42A1.48,1.48,0,0,0,320.72,36.21Zm-10.79.13,5.43-3.26,6.2,12.26,3.37,2.3c-1.07,1.75-4,5.74-8.7,6.8l-.2.07-.34-6.72ZM288.48,62.55l.41-1.26,6.73,3.48v1.32Zm57.65,30.22h-5.56s0,0,0-.07l-1.81-5.79a1.5,1.5,0,0,0-2.86.89l1.55,5h-6.32V79.07a1.5,1.5,0,0,0-3,0v13.7h-7.33V87.84a1.5,1.5,0,0,0-3,0v4.93h-6.67V78.52a1.5,1.5,0,0,0-3,0V92.77h-6.62l2.61-6.19V82.66a1.5,1.5,0,0,0-3,0V86l-2.78,6.59a1.49,1.49,0,0,0-.06.21h-4.49l4.86-10.52V57.76h2.47v5.37a1.5,1.5,0,1,0,3,0V57.76h13.69v6.71a1.5,1.5,0,0,0,3,0V57.76h13.84v5.74a1.5,1.5,0,1,0,3,0V57.76H340V75.62Z"/><path class="cls-1" d="M319.29,68.06a1.5,1.5,0,0,0-1.5,1.5V83.25a1.5,1.5,0,0,0,3,0V69.56A1.5,1.5,0,0,0,319.29,68.06Z"/><path class="cls-1" d="M309.61,60.75a1.5,1.5,0,0,0-1.5,1.5V73.12a1.5,1.5,0,1,0,3,0V62.25A1.5,1.5,0,0,0,309.61,60.75Z"/><path class="cls-1" d="M329.61,68.32a1.5,1.5,0,0,0-1.5,1.5v3.54a1.5,1.5,0,0,0,3,0V69.82A1.5,1.5,0,0,0,329.61,68.32Z"/><path class="cls-1" d="M329.61,61a1.5,1.5,0,0,0-1.5,1.5V64.4a1.5,1.5,0,1,0,3,0V62.51A1.5,1.5,0,0,0,329.61,61Z"/><path class="cls-1" d="M336.13,78.38a1.5,1.5,0,0,0-1.5,1.5v1.89a1.5,1.5,0,1,0,3,0V79.88A1.5,1.5,0,0,0,336.13,78.38Z"/><path class="cls-1" d="M302.6,68.14a1.5,1.5,0,0,0-1.5,1.5v6.87a1.5,1.5,0,1,0,3,0V69.64A1.5,1.5,0,0,0,302.6,68.14Z"/><path class="cls-1" d="M395.15,181.59a18.38,18.38,0,0,0,3.31,10.63,1.5,1.5,0,1,0,2.46-1.72,15.41,15.41,0,0,1-2.77-8.9c0-8.15,6.14-14.77,13.69-14.77s13.69,6.63,13.69,14.77a15.41,15.41,0,0,1-2.76,8.9,1.5,1.5,0,1,0,2.46,1.72,18.39,18.39,0,0,0,3.31-10.62c0-9.8-7.49-17.77-16.69-17.77S395.15,171.8,395.15,181.59Z"/><path class="cls-1" d="M418.88,156a2,2,0,1,0-2-2A2,2,0,0,0,418.88,156Z"/><path class="cls-1" d="M404.78,156a2,2,0,1,0-2-2A2,2,0,0,0,404.78,156Z"/><path class="cls-1" d="M410.72,172.9a1.28,1.28,0,0,1,2.22,0,1.5,1.5,0,0,0,2.12-2.12,4.18,4.18,0,0,0-6.46,0,1.5,1.5,0,0,0,2.12,2.13Z"/><path class="cls-1" d="M418.34,178.76a1.5,1.5,0,0,0,1.06-2.56,4.18,4.18,0,0,0-6.46,0,1.5,1.5,0,0,0,2.12,2.13,1.28,1.28,0,0,1,2.22,0A1.5,1.5,0,0,0,418.34,178.76Z"/><path class="cls-1" d="M409.66,178.76a1.5,1.5,0,0,0,1.06-2.56,4.18,4.18,0,0,0-6.46,0,1.5,1.5,0,0,0,2.12,2.13,1.28,1.28,0,0,1,2.22,0A1.5,1.5,0,0,0,409.66,178.76Z"/><path class="cls-1" d="M411.83,180.09a5.1,5.1,0,0,0-3.23,1.52,1.5,1.5,0,0,0,2.12,2.13,1.28,1.28,0,0,1,2.22,0,1.5,1.5,0,0,0,2.12-2.12A5.1,5.1,0,0,0,411.83,180.09Z"/><path class="cls-1" d="M423.74,183.74a1.5,1.5,0,0,0,0-2.12,4.18,4.18,0,0,0-6.46,0,1.5,1.5,0,0,0,2.12,2.13,1.28,1.28,0,0,1,2.22,0,1.5,1.5,0,0,0,2.12,0Z"/><path class="cls-1" d="M403.16,180.09a5.1,5.1,0,0,0-3.23,1.52,1.5,1.5,0,0,0,2.12,2.13,1.28,1.28,0,0,1,2.22,0,1.5,1.5,0,1,0,2.12-2.12A5.1,5.1,0,0,0,403.16,180.09Z"/><path class="cls-1" d="M532,107.11c-11.73,0-21.28,14.92-21.28,33.26,0,17.47,8.66,31.82,19.62,33.15v31.23a1.5,1.5,0,0,0,3,0V173.56c11.11-1.08,19.94-15.55,19.94-33.19C553.26,122,543.72,107.11,532,107.11Zm1.34,63.43V143.72a1.43,1.43,0,0,0,.2-.11l3.2-2.66a1.5,1.5,0,1,0-1.92-2.3l-1.47,1.23v-9.25a1.5,1.5,0,0,0-3,0V157l-7.51-10a1.5,1.5,0,1,0-2.4,1.8L530.32,162v8.54c-9.3-1.4-16.62-14.37-16.62-30.13,0-16.69,8.2-30.26,18.28-30.26s18.28,13.58,18.28,30.26C550.26,156.32,542.78,169.41,533.32,170.55Z"/><path class="cls-1" d="M531.82,117.09a1.5,1.5,0,0,0-1.5,1.5v7.68a1.5,1.5,0,0,0,3,0v-7.68A1.5,1.5,0,0,0,531.82,117.09Z"/><path class="cls-1" d="M537.87,136.07a1.5,1.5,0,0,0,1.92,2.3l3.2-2.67a1.5,1.5,0,1,0-1.92-2.3Z"/><path class="cls-1" d="M538.89,162.46a12.77,12.77,0,0,1-2.61,2.11,1.5,1.5,0,0,0,1.54,2.57,15.79,15.79,0,0,0,3.23-2.6,1.5,1.5,0,1,0-2.16-2.08Z"/><path class="cls-1" d="M541.7,161.5a1.5,1.5,0,0,0,2.07-.48,31.41,31.41,0,0,0,4-10.64,1.5,1.5,0,0,0-2.95-.56,28.39,28.39,0,0,1-3.6,9.62A1.5,1.5,0,0,0,541.7,161.5Z"/><path class="cls-1" d="M546.71,147.6h.12a1.5,1.5,0,0,0,1.49-1.38c.09-1.08.13-2.18.13-3.27a1.5,1.5,0,0,0-3,0c0,1,0,2-.12,3A1.5,1.5,0,0,0,546.71,147.6Z"/><path class="cls-1" d="M522.68,119.45a1.5,1.5,0,0,0-2.07.47,25.18,25.18,0,0,0-1.62,3,1.5,1.5,0,1,0,2.73,1.24,22.15,22.15,0,0,1,1.42-2.66A1.5,1.5,0,0,0,522.68,119.45Z"/><path class="cls-1" d="M518.56,128.74a1.5,1.5,0,0,0-1.75,1.2,35.66,35.66,0,0,0-.6,6,1.5,1.5,0,0,0,1.48,1.52h0a1.5,1.5,0,0,0,1.5-1.48,32.58,32.58,0,0,1,.55-5.52A1.5,1.5,0,0,0,518.56,128.74Z"/><path class="cls-1" d="M488.6,70.4l.42-.69L492.11,65H520.3l3.53,5.4h16.54l-1.45-2.3h0L521.12,39.82,508.88,20.37h0L508,18.95l4.91-7.83a1.5,1.5,0,1,0-2.54-1.59l-2.65,4.23V10.32a1.5,1.5,0,0,0-3,0v3.42L502,9.52a1.5,1.5,0,0,0-2.54,1.6l4.89,7.76L491.64,39.19h-8.21a1.5,1.5,0,0,0-1.48,1.73l1.69,11L472,70.4Zm-9.4-5.77,2.05,2.05,2.17-2.17,2.17,2.17.27-.27.15,1h-8.55Zm33.55-18.5L508.5,39a1.48,1.48,0,0,0-.79-.64V24.13l13.81,21.93-1.2,1.19-2.17-2.17L516,47.25l-2.17-2.17Zm-8-6.93h-9.43l9.43-15Zm17.74,23.27-6.55-11,.07.07,2.17-2.17,2.17,2.17,2.85-2.83L531.56,62l-.41.41L529,60.27l-2.17,2.17-2.17-2.17Zm-20-20.27L488.63,64.64l-1.86-12.06,6.52-10.38ZM494.07,62,506.2,43.43,518.34,62ZM524,65.16l.65-.65,2.17,2.17L529,64.51l2.17,2.17,2-2,1.74,2.77h-9.49Zm-38.82-23h4.58L486.07,48Zm0,19.84-1.77-1.76-2.17,2.17-.42-.42,3.49-5.56Z"/><path class="cls-1" d="M653.28,157.33h0l-1.06,1.06a5.44,5.44,0,0,0-1.52,4.31v8.68c0,1,0,1.58-.65,2.19l-25.49,25.49c-2.74,2.74-2.75,5.88,0,8.62l4.37,4.37a6.09,6.09,0,0,0,4.28,2,6.2,6.2,0,0,0,4.34-2.08L663,186.54c.62-.62,1.12-.65,2.19-.65h8.68a5.49,5.49,0,0,0,4.14-1.35l.19-.16.14-.16,8.5-8.5-26-26Zm-17.86,52.57a3.4,3.4,0,0,1-2.2,1.21h0a3.26,3.26,0,0,1-2.16-1.17l-4.37-4.37c-1.57-1.57-1.57-2.8,0-4.38l24.43-24.43,8.73,8.73Zm38.47-27h-8.68a6.15,6.15,0,0,0-3.11.62l-9-9a6.15,6.15,0,0,0,.62-3.11V162.7c0-.27,0-.5,0-.7l20.88,20.88Zm3.25-1.71L655.4,159.45l5.47-5.47,21.74,21.74Z"/><path class="cls-1" d="M782.81,176,776,149h3.73l-5-18h2.63l-8.22-22a1.64,1.64,0,0,0-3,0l-8,22h2.6l-5.22,18h4l-6.74,27h13.53v12.6a1.5,1.5,0,0,0,3,0V176Zm-19.59-30h-3.8l5.22-18h-2.3l5.27-14.41L773,128h-2.27l5,18h-3.63L779,173H756.48Z"/><path class="cls-1" d="M769.56,148.78a1.5,1.5,0,0,0-1.14,1.79l2,8.85a1.5,1.5,0,0,0,2.93-.65l-2-8.85A1.5,1.5,0,0,0,769.56,148.78Z"/><path class="cls-1" d="M770.77,141.07a1.5,1.5,0,0,0,1.46-1.83l-2-8.85a1.5,1.5,0,1,0-2.93.65l2,8.85A1.5,1.5,0,0,0,770.77,141.07Z"/><path class="cls-1" d="M774.29,163.61a1.5,1.5,0,1,0-2.91.75l.94,3.64h-2.5a1.5,1.5,0,0,0,0,3h6.37Z"/><path class="cls-1" d="M658.73,161.6a1.5,1.5,0,0,0,2.12,0l2.17-2.17a1.5,1.5,0,1,0-2.12-2.12l-2.17,2.17A1.5,1.5,0,0,0,658.73,161.6Z"/><path class="cls-1" d="M662,164.85a1.5,1.5,0,0,0,2.12,0l2.17-2.17a1.5,1.5,0,1,0-2.12-2.12L662,162.73A1.5,1.5,0,0,0,662,164.85Z"/><path class="cls-1" d="M665.23,168.1a1.5,1.5,0,0,0,2.12,0l2.17-2.17a1.5,1.5,0,0,0-2.12-2.12L665.23,166A1.5,1.5,0,0,0,665.23,168.1Z"/><path class="cls-1" d="M668.49,171.36a1.5,1.5,0,0,0,2.12,0l2.17-2.17a1.5,1.5,0,0,0-2.12-2.12l-2.17,2.17A1.5,1.5,0,0,0,668.49,171.36Z"/><path class="cls-1" d="M671.74,174.61a1.5,1.5,0,0,0,2.12,0l2.17-2.17a1.5,1.5,0,0,0-2.12-2.12l-2.17,2.17A1.5,1.5,0,0,0,671.74,174.61Z"/><path class="cls-1" d="M675,177.87a1.5,1.5,0,0,0,2.12,0l2.17-2.17a1.5,1.5,0,0,0-2.12-2.12L675,175.75A1.5,1.5,0,0,0,675,177.87Z"/><path class="cls-1" d="M649.36,187.23a3.68,3.68,0,0,0-5.19,0l-3.26,3.26a3.67,3.67,0,0,0,5.19,5.19l3.25-3.25a3.67,3.67,0,0,0,0-5.19Zm-2.12,2.12a.67.67,0,0,1,0,.95l-1.11,1.11-.95-.95,1.11-1.11A.67.67,0,0,1,647.24,189.35Zm-4.2,4.2a.67.67,0,0,1,0-.95l0,0,.95.95,0,0A.67.67,0,0,1,643,193.55Z"/><path class="cls-1" d="M678.2,160.51l6.51-6.51a1.5,1.5,0,0,0-2.12-2.12l-6.51,6.51a1.5,1.5,0,1,0,2.12,2.12Z"/><path class="cls-1" d="M686.23,161.36l-4.34,2.17a1.5,1.5,0,0,0,1.34,2.68l4.34-2.17a1.5,1.5,0,1,0-1.34-2.68Z"/><path class="cls-1" d="M671.72,155.53a1.5,1.5,0,0,0,1.34-.83l2.17-4.34a1.5,1.5,0,0,0-2.68-1.34l-2.17,4.34a1.5,1.5,0,0,0,1.34,2.17Z"/><path class="cls-1" d="M343.87,266.88l-2.72-1.44-12.63-14.28L322,256,328,266.87H315.29a18.86,18.86,0,1,0,3.09,37.46,1.5,1.5,0,0,0,.83.25h24.28a18.86,18.86,0,0,0,.38-37.71Zm-18.39,34.71a18.94,18.94,0,0,0,7.73-10h5.94a1.5,1.5,0,0,0,0-3h-5.23a18.74,18.74,0,0,0-2.26-12.19H337a1.5,1.5,0,0,0,0-3h-7.45a19.07,19.07,0,0,0-2.46-2.37,1.5,1.5,0,0,0-1.88,2.34,15.86,15.86,0,1,1-9.91-3.48H333l-7.1-13,2.19-1.65,11.16,12.62,3.86,2h.37a15.87,15.87,0,0,1,15.78,14.36h-2.76a1.5,1.5,0,0,0,0,3h2.76a15.75,15.75,0,0,1-3,7.85H350a1.5,1.5,0,0,0,0,3h3.42a15.77,15.77,0,0,1-9.92,3.51Z"/><path class="cls-1" d="M320.24,274.41a1.5,1.5,0,1,0-1.2,2.75,9.36,9.36,0,0,1,5.19,5.79,1.5,1.5,0,0,0,1.43,1.05,1.48,1.48,0,0,0,.45-.07,1.5,1.5,0,0,0,1-1.88A12.35,12.35,0,0,0,320.24,274.41Z"/><path class="cls-1" d="M324.64,285.73a9.41,9.41,0,0,1-6,8.73,1.5,1.5,0,0,0,.54,2.9,1.48,1.48,0,0,0,.54-.1,12.42,12.42,0,0,0,7.93-11.53,1.5,1.5,0,0,0-3,0Z"/><path class="cls-1" d="M315.29,295.08a9.25,9.25,0,0,1-4.34-1.07,1.5,1.5,0,1,0-1.39,2.66,12.39,12.39,0,0,0,5.74,1.41,1.5,1.5,0,0,0,0-3Z"/><path class="cls-1" d="M308.64,277a1.5,1.5,0,0,0-2.12,0,12.35,12.35,0,0,0-1.11,16.1,1.5,1.5,0,1,0,2.4-1.8,9.35,9.35,0,0,1,.84-12.19A1.5,1.5,0,0,0,308.64,277Z"/><path class="cls-1" d="M312.06,276.87a1.51,1.51,0,0,0,.45-.07,9.34,9.34,0,0,1,2.78-.42,1.5,1.5,0,0,0,0-3,12.34,12.34,0,0,0-3.67.55,1.5,1.5,0,0,0,.45,2.93Z"/><path class="cls-1" d="M317.17,287.86a2.91,2.91,0,0,1-3.76,0,1.5,1.5,0,0,0-2,2.25,5.84,5.84,0,0,0,7.73,0,1.5,1.5,0,1,0-2-2.25Z"/><path class="cls-1" d="M311,287.23a1.5,1.5,0,0,0,1.5-1.5,2.83,2.83,0,0,1,.71-1.87,1.5,1.5,0,0,0-2.25-2,5.83,5.83,0,0,0-1.46,3.86A1.5,1.5,0,0,0,311,287.23Z"/><path class="cls-1" d="M321.13,285.73a5.85,5.85,0,0,0-5.84-5.84,1.5,1.5,0,0,0,0,3,2.84,2.84,0,0,1,2.84,2.84,1.5,1.5,0,1,0,3,0Z"/><path class="cls-1" d="M352.17,284.23H350a1.5,1.5,0,0,0,0,3h2.17a1.5,1.5,0,0,0,0-3Z"/><path class="cls-1" d="M339.15,279.89H337a1.5,1.5,0,0,0,0,3h2.17a1.5,1.5,0,0,0,0-3Z"/><path class="cls-1" d="M353.67,277.05a1.5,1.5,0,0,0-1.5-1.5h-6.51a1.5,1.5,0,0,0,0,3h6.51A1.5,1.5,0,0,0,353.67,277.05Z"/><path class="cls-1" d="M337,297.25h-4.34a1.5,1.5,0,0,0,0,3H337a1.5,1.5,0,0,0,0-3Z"/><path class="cls-1" d="M299.69,200a1.5,1.5,0,1,0,3,0V182.46L315,175.3a1.5,1.5,0,0,0-1.51-2.59L302.69,179v-7.34L316,164.47a1.5,1.5,0,1,0-1.42-2.64l-11.89,6.4v-7.45l10.07-5.54a1.5,1.5,0,0,0-1.45-2.63l-8.62,4.74V143.63a1.5,1.5,0,0,0-3,0v13.73l-8.62-4.74a1.5,1.5,0,0,0-1.45,2.63l10.07,5.54v7.45l-11.89-6.4a1.5,1.5,0,1,0-1.42,2.64l13.31,7.17V179l-10.76-6.28a1.5,1.5,0,1,0-1.51,2.59l12.27,7.16v7c-10.11-2.55-15.44-10.49-15.44-23.08,0-11.59,8.65-21.7,17-27.53C312,145,318.13,155,318.13,166.41s-4.53,19.26-13.11,22.38a1.5,1.5,0,1,0,1,2.82c9.87-3.59,15.09-12.31,15.09-25.2s-7-23.94-19.22-30.6l-.8-.43-.75.5c-9.24,6.16-19.11,17.41-19.11,30.54,0,14.24,6.55,23.47,18.44,26.15Z"/><path class="cls-1" d="M158,62.14l-5.42,5.42,0,0L141.06,56V43h12.19v4.34h21.07L169.38,35l4.94-12.35h-15.9V18.29H138.06V56L112.47,81.64a1.5,1.5,0,1,0,2.12,2.12l7.62-7.62,5.42,5.42,6.51-6.51,5.42,5.42L146.07,74l4.34,4.34L154.75,74l8.68,8.68,5.42-5.42,6.53,6.53a1.5,1.5,0,0,0,2.12-2.12Zm11.89-36.51-3.14,7.85h-5.49a1.5,1.5,0,0,0,0,3h5.49l3.14,7.85H156.25V43h2.17V25.63Zm-28.83-4.34h14.36v7.85H143.9a1.5,1.5,0,0,0,0,3h11.52v7.54a1.47,1.47,0,0,0-1.76.31h-12.6Zm11.56,50.57-2.22,2.22-4.34-4.34-6.51,6.51-5.42-5.42-6.51,6.51-3.3-3.3,15.23-15.23Zm10.8,6.56-8.73-8.73,3.3-3.3,8.73,8.73Z"/><path class="cls-1" d="M496.22,289.75a26.39,26.39,0,0,0-37-37l-13.88-8.92,8.93,13.88a26.39,26.39,0,0,0,21,42.42,26.12,26.12,0,0,0,16-5.41l14,9Zm-21-39.43a23.41,23.41,0,0,1,19.26,36.74l-12.54-19.51-.18-.27-19.88-12.78A23.48,23.48,0,0,1,475.23,250.33Zm0,46.83A23.42,23.42,0,0,1,456,260.42l12.6,19.6.18.27L488.52,293A23.13,23.13,0,0,1,475.23,297.16Zm-4.31-19-15.62-24.29,24.29,15.62,15.62,24.29Z"/><path class="cls-1" d="M475.26,269a4.75,4.75,0,1,0,4.75,4.75A4.76,4.76,0,0,0,475.26,269Zm0,6.51a1.75,1.75,0,1,1,1.75-1.75A1.76,1.76,0,0,1,475.26,275.55Z"/><path class="cls-1" d="M454.8,270.92a1.52,1.52,0,0,0,.32,0,1.5,1.5,0,0,0,1.46-1.19,19.1,19.1,0,0,1,1.06-3.37,1.5,1.5,0,1,0-2.77-1.16,22.06,22.06,0,0,0-1.23,3.91A1.5,1.5,0,0,0,454.8,270.92Z"/><path class="cls-1" d="M467.12,253.24a1.5,1.5,0,1,0,1.11,2.79,19,19,0,0,1,5.54-1.28v.61a1.5,1.5,0,1,0,3,0v-3.67h-1.5A22,22,0,0,0,467.12,253.24Z"/><path class="cls-1" d="M495.73,276.67a1.51,1.51,0,0,0-1.78,1.15,19,19,0,0,1-1.06,3.37,1.5,1.5,0,0,0,2.77,1.16,22.07,22.07,0,0,0,1.23-3.91A1.5,1.5,0,0,0,495.73,276.67Z"/><path class="cls-1" d="M483.41,294.36a1.5,1.5,0,1,0-1.11-2.79,19,19,0,0,1-5.54,1.28v-.61a1.5,1.5,0,1,0-3,0v3.67h1.5A22,22,0,0,0,483.41,294.36Z"/><path class="cls-1" d="M456.21,275.29h.61a1.5,1.5,0,0,0,0-3h-3.67v1.5a22.22,22.22,0,0,0,17.46,21.62,1.53,1.53,0,0,0,.32,0,1.5,1.5,0,0,0,.31-3A19.21,19.21,0,0,1,456.21,275.29Z"/><path class="cls-1" d="M494.31,272.29h-.61a1.5,1.5,0,0,0,0,3h3.67v-1.5a22.22,22.22,0,0,0-17.46-21.62,1.5,1.5,0,1,0-.63,2.93A19.21,19.21,0,0,1,494.31,272.29Z"/><path class="cls-1" d="M106.35,216.18a1.5,1.5,0,0,0-3,0,10.44,10.44,0,0,1-10.43,10.43,1.5,1.5,0,0,0,0,3A13.45,13.45,0,0,0,106.35,216.18Z"/><path class="cls-1" d="M89.13,225.9a10.42,10.42,0,0,1-3.6-2.36,1.5,1.5,0,1,0-2.12,2.12,13.4,13.4,0,0,0,4.63,3,1.5,1.5,0,1,0,1.09-2.79Z"/><path class="cls-1" d="M424,140.79l-.67-1.34-1.34.67a8.38,8.38,0,0,0-3.44,3.81,32,32,0,0,0-13.48,0,8.38,8.38,0,0,0-3.44-3.81l-1.34-.67-.67,1.34a16,16,0,0,0-1.36,8.95c-2.43,2.95-12.9,16.25-12.9,26.44s2.83,13.41,3.75,14.14a10.91,10.91,0,0,0,3.39,2.31,17.61,17.61,0,0,0,2.92,6.34l.13.15a13.28,13.28,0,0,0,3.23,2.39,6,6,0,0,0,5.43,4.38,5.58,5.58,0,0,0,4.64-2.74,8,8,0,0,0,3,.57,8.19,8.19,0,0,0,3-.56,5.58,5.58,0,0,0,4.63,2.73c2.62,0,4.84-2.06,5.58-4.88a7.9,7.9,0,0,0,3-2.09l.14-.17a18.35,18.35,0,0,0,2.69-6.55,14.89,14.89,0,0,0,3.56-1.74c.66-.44,3.92-3.18,3.92-14.26,0-10.18-10.47-23.49-12.9-26.44A16,16,0,0,0,424,140.79ZM402.67,202.2h0a3.41,3.41,0,0,1-.47-.56l-.08-.13a4.19,4.19,0,0,1-.3-.57l-.06-.14a4.82,4.82,0,0,1-.22-.69l0-.1a5.2,5.2,0,0,1-.11-.87h0c0-.06,0-.12,0-.19,0-2.13,1.3-3.92,2.84-3.92s2.84,1.8,2.84,3.92a5.1,5.1,0,0,1,0,.56h0a4.15,4.15,0,0,1-1.5,2.89,2.19,2.19,0,0,1-1.3.47A2.3,2.3,0,0,1,402.67,202.2Zm16.75.67c-1.54,0-2.84-1.8-2.84-3.92s1.3-3.92,2.84-3.92,2.84,1.8,2.84,3.92S421,202.87,419.43,202.87Zm15.86-26.7c0,9.57-2.61,11.79-2.64,11.81a10,10,0,0,1-1.27.72c.67-6,.1-13.37-.69-21.35a1.5,1.5,0,0,0-3,.3c1.21,12.11,2,23.47-2,29.27-.19.19-.39.37-.59.55-.58-3.1-2.91-5.43-5.7-5.43-3.22,0-5.84,3.11-5.84,6.92a8.17,8.17,0,0,0,.12,1.4,5.21,5.21,0,0,1-1.87.36,5,5,0,0,1-1.87-.37,8.17,8.17,0,0,0,.12-1.39c0-3.82-2.62-6.92-5.84-6.92-2.86,0-5.24,2.45-5.74,5.68-.27-.22-.52-.44-.72-.64-4.56-6.1-3.48-18.25-1.82-29.35a1.5,1.5,0,0,0-3-.45c-1.13,7.55-1.93,15.1-1.18,21.43a6.87,6.87,0,0,1-.55-.51L391,188s-2.64-2.24-2.64-11.81c0-10.16,12.53-24.91,12.66-25.06l.5-.59-.19-.75a11.36,11.36,0,0,1,.28-5.76,7.49,7.49,0,0,1,1.18,2.25l.55,1.59,1.53-.71s2.05-.93,6.94-.93,6.92.93,6.92.93l1.55.77.55-1.64A7.48,7.48,0,0,1,422,144a11.3,11.3,0,0,1,.27,5.76l-.19.75.5.59C422.75,151.26,435.28,166,435.28,176.17Z"/><path class="cls-1" d="M411.83,160.15a3.81,3.81,0,0,0,3.67-3.67c0-1.12-1-2.31-3.67-2.31s-3.67,1.2-3.67,2.31A3.81,3.81,0,0,0,411.83,160.15Z"/><path class="cls-1" d="M118,238.71l-1.8-5.91a2.58,2.58,0,0,0-3.08-1.91l-10.46,2.49a20.39,20.39,0,0,0,10.2-17.2c0-9.12-3.9-14.37-8-19.94a54.83,54.83,0,0,1-7.28-12l-.86-2.07-1.58,1.58c-3.32,3.32-5.47,8.78-6.69,12.85a27.56,27.56,0,0,1-.51-5.28v-3.62l-2.56,2.56C79.71,195.94,73,205,73,216.18A20.33,20.33,0,0,0,82.52,233l-9.84-2.09a2.59,2.59,0,0,0-3.06,2l-.9,4.24a2.58,2.58,0,0,0,2,3.07l1.79.38-1.18.28a2.93,2.93,0,0,0-2.13,3.71l1.44,4.74a2.58,2.58,0,0,0,3.05,1.91l23-5.49,16.42,3.49a2.57,2.57,0,0,0,.53.06,2.59,2.59,0,0,0,2.53-2l.45-2.1,0-.05s0-.05,0-.08l.43-2a2.57,2.57,0,0,0-.41-2A1.78,1.78,0,0,0,118,238.71ZM76,216.18c0-8.65,4.55-16,9.14-21.25a25.83,25.83,0,0,0,2.12,7.95l2,4,.8-4.43c0-.1,1.73-9.32,5.73-14.84a64.42,64.42,0,0,0,6.65,10.4c4,5.38,7.43,10,7.43,18.16,0,8.87-8.07,16.94-16.94,16.94S76,225,76,216.18Zm-4.24,21.16.1-.47,1.5.33a1.46,1.46,0,0,0,.32,0,1.5,1.5,0,0,0,.32-3l-1.52-.33v0l15.38,3.27L80,239.1Zm1.7,10.84-.62-2,.6-.17a1.5,1.5,0,0,0,1-1.85,1.48,1.48,0,0,0-.58-.81l39.53-9.42,0,.1-.92.26a1.5,1.5,0,0,0,.81,2.89l1-.28.45,1.47ZM114,243l-.62,2.93-.05.25-10-2.13,7.91-1.91,2.86.61Z"/><path class="cls-1" d="M84.79,184.43a2,2,0,1,1,2-2A2,2,0,0,1,84.79,184.43Z"/><path class="cls-1" d="M72.79,195.43a2,2,0,1,1,2-2A2,2,0,0,1,72.79,195.43Z"/><path class="cls-1" d="M106.79,189.43a2,2,0,1,1,2-2A2,2,0,0,1,106.79,189.43Z"/><path class="cls-1" d="M73.79,183.43a2,2,0,1,1,2-2A2,2,0,0,1,73.79,183.43Z"/></svg>