<svg id="Layer_1" data-name="Layer 1" xmlns="http://www.w3.org/2000/svg" viewBox="0 0 49.73 54.41"><defs><style>.cls-1{fill:#ffc11b;}.cls-2{fill:none;stroke:#000;stroke-linecap:round;stroke-linejoin:round;}</style></defs><title>illustration</title><circle class="cls-1" cx="26.39" cy="27.79" r="22.65"/><polyline class="cls-2" points="40.77 27.59 35.83 22.65 22.13 36.35 27.07 41.29"/><polyline class="cls-2" points="22.13 36.35 19.99 43.63 22.58 42.95"/><path class="cls-2" d="M42.11,26.58l1.42-1.36a3.49,3.49,0,0,0,1.28-2.57A3.85,3.85,0,0,0,41,18.8a3.49,3.49,0,0,0-2.57,1.28l-.21.21-2.35,2.35"/><line class="cls-2" x1="36.25" y1="25.65" x2="25.55" y2="36.35"/><line class="cls-2" x1="37.97" y1="27.36" x2="27.26" y2="38.06"/><line class="cls-2" x1="20.8" y1="41.39" x2="22.36" y2="43"/><polyline class="cls-2" points="37.11 21.37 42.25 26.5 27.26 41.49 22.36 43 20.8 41.39"/><polygon points="22.36 43 20.8 41.39 20.08 43.48 22.36 43"/><path class="cls-2" d="M22.38,24.82s0-3.85,3.42-4.71C21.53,15.83,18.1,7.7,18.1,7.7s-3.42,7.7-7.7,12c3.42.86,3.42,5.14,3.42,5.14"/><line class="cls-2" x1="18.1" y1="17.97" x2="18.1" y2="7.7"/><rect class="cls-2" x="16.89" y="1.06" width="2.42" height="2.42" transform="translate(3.69 13.47) rotate(-45)"/><circle class="cls-2" cx="1.84" cy="2.27" r="0.86"/><line class="cls-2" x1="16.39" y1="2.27" x2="2.69" y2="2.27"/><circle cx="18.1" cy="19.43" r="1.46"/><path class="cls-2" d="M15.31,29.47H13V26.53H23.24a20.47,20.47,0,0,0,0,2.93H17.81"/><path class="cls-2" d="M16.39,2.27A13.7,13.7,0,0,0,2.69,16"/><rect class="cls-2" x="1.48" y="16.47" width="2.42" height="2.42" transform="translate(-11.72 7.08) rotate(-45)"/><circle class="cls-2" cx="34.26" cy="2.27" r="0.86"/><line class="cls-2" x1="19.71" y1="2.27" x2="33.4" y2="2.27"/><line class="cls-2" x1="14.09" y1="36.3" x2="14.09" y2="29.54"/><line class="cls-2" x1="22.24" y1="32.97" x2="22.24" y2="29.54"/></svg>