<svg id="Layer_1" data-name="Layer 1" xmlns="http://www.w3.org/2000/svg" viewBox="0 0 400 400"><defs><style>.cls-1{fill:#ffc11b;}.cls-2{fill:#fff;}</style></defs><title>logo-sm</title><polygon class="cls-1" points="278.05 31.28 233.99 86.66 252.88 110.29 279.19 77.14 328.44 137.5 275.7 137.5 300.46 169.5 388.77 169.5 278.05 31.28"/><rect class="cls-2" x="189.64" y="268.21" width="201.68" height="31.41"/><path class="cls-2" d="M354.62,369.8h-32.5L262.57,266.34V369.8H226.34v-171h33.25l58.55,102.22V198.85h36.47Z"/><polygon class="cls-1" points="157.49 370.5 125.49 370.5 125.49 337.5 9.72 337.5 77.69 250.5 33.85 250.5 98.4 169.5 59.89 169.5 170.12 31.13 280.84 169.5 192.49 169.5 192.49 137.5 220.52 137.5 171.27 76.48 121.85 137.5 163.21 137.5 98.65 221.5 141.5 221.5 73.54 307.5 157.49 307.5 157.49 370.5"/></svg>