<svg id="Layer_1" data-name="Layer 1" xmlns="http://www.w3.org/2000/svg" viewBox="0 0 145.75 145.75"><defs><style>.cls-1{fill:#f4ba27;}.cls-2{fill:#fff;}</style></defs><title>logo-sm</title><path class="cls-1" d="M64.06,45.33H79.24a.93.93,0,0,0,.8-1.39L55.63,1.58a.93.93,0,0,0-1.59,0l-42,68A.93.93,0,0,0,12.86,71h7a.93.93,0,0,1,.8,1.39L6,97.86a.93.93,0,0,0,.8,1.39H17.57a.93.93,0,0,1,.78,1.42L1.84,127a.93.93,0,0,0,.78,1.42H30.83a.93.93,0,0,1,.93.93v14a.93.93,0,0,0,.93.93H45.83a.93.93,0,0,0,.93-.93v-29a.93.93,0,0,0-.93-.93H29.74A.93.93,0,0,1,29,112L45.46,85.67a.93.93,0,0,0-.78-1.42h-12a.93.93,0,0,1-.8-1.39L46.49,57.39a.93.93,0,0,0-.8-1.39H39.73a.93.93,0,0,1-.79-1.41L53.6,30.84a.93.93,0,0,1,1.59,0l8.07,14A.93.93,0,0,0,64.06,45.33Z"/><path class="cls-2" d="M143.55,91.94H132.36a.93.93,0,0,1-.93-.93V57.31a.93.93,0,0,0-.93-.93H115.57a.93.93,0,0,0-.93.93V91a.93.93,0,0,1-.93.93h-8.78a.93.93,0,0,1-.81-.47L84.64,56.86a.93.93,0,0,0-.81-.47H68.51a.93.93,0,0,0-.93.93V91a.93.93,0,0,1-.93.93H55.47a.93.93,0,0,0-.93.93V107.8a.93.93,0,0,0,.93.93H66.66a.93.93,0,0,1,.93.93v33.7a.93.93,0,0,0,.93.93H83.45a.93.93,0,0,0,.93-.93v-33.7a.93.93,0,0,1,.93-.93h8.75a.93.93,0,0,1,.81.47l19.52,34.61a.93.93,0,0,0,.81.47h15.32a.93.93,0,0,0,.93-.93v-33.7a.93.93,0,0,1,.93-.93h11.19a.93.93,0,0,0,.93-.93V92.87A.93.93,0,0,0,143.55,91.94Z"/><path class="cls-1" d="M104.64,1.56,86.8,30.46a.93.93,0,0,0,0,1L94.27,44a.93.93,0,0,0,1.58,0l8.35-13.23a.93.93,0,0,1,1.58,0l8.08,14a.93.93,0,0,0,.8.46h15.18a.93.93,0,0,0,.8-1.39L106.23,1.58A.93.93,0,0,0,104.64,1.56Z"/></svg>