<svg id="Layer_1" data-name="Layer 1" xmlns="http://www.w3.org/2000/svg" xmlns:xlink="http://www.w3.org/1999/xlink" viewBox="0 0 546.69 519.21"><defs><style>.cls-1{fill:none;}.cls-2{clip-path:url(#clip-path);}.cls-3{fill:#e3a139;}.cls-4{fill:#35a859;}.cls-5{fill:#fdc94a;}.cls-6{fill:#af41d4;}.cls-7{fill:#48c4ca;}.cls-8{fill:#24a7b5;}.cls-9{fill:#dfe3e4;}.cls-10{fill:#db402f;}.cls-11{fill:#256b8b;}.cls-12{fill:#fff;}.cls-13{fill:#e6e7e8;}.cls-14{fill:#bd2626;}</style><clipPath id="clip-path"><rect class="cls-1" x="0.27" y="0.26" width="546.14" height="518.7"/></clipPath></defs><title>dots</title><g class="cls-2"><circle class="cls-3" cx="319.34" cy="148.23" r="1.25"/><circle class="cls-4" cx="363.2" cy="111.18" r="1.25"/><circle class="cls-5" cx="376.09" cy="426.65" r="1.25"/><circle class="cls-6" cx="298.52" cy="448.86" r="1.25"/><circle class="cls-4" cx="286.04" cy="510.39" r="1.25"/><circle class="cls-7" cx="353.62" cy="203.97" r="1.25"/><circle class="cls-5" cx="367.24" cy="298.75" r="1.25"/><circle class="cls-8" cx="292.7" cy="342.28" r="1.25"/><circle class="cls-9" cx="338.15" cy="389.6" r="1.25"/><circle class="cls-5" cx="295.23" cy="200.72" r="1.73"/><circle class="cls-10" cx="228.08" cy="384.21" r="1.67"/><circle class="cls-3" cx="319.34" cy="148.23" r="1.25"/><circle class="cls-4" cx="363.2" cy="111.18" r="1.25"/><circle class="cls-5" cx="376.09" cy="426.65" r="1.25"/><circle class="cls-6" cx="298.52" cy="448.86" r="1.25"/><circle class="cls-4" cx="286.04" cy="510.39" r="1.25"/><circle class="cls-7" cx="353.62" cy="203.97" r="1.25"/><circle class="cls-5" cx="346.32" cy="274.39" r="1.25"/><circle class="cls-8" cx="292.7" cy="342.28" r="1.25"/><circle class="cls-9" cx="338.15" cy="389.6" r="1.25"/><circle class="cls-5" cx="295.23" cy="200.72" r="1.73"/><circle class="cls-10" cx="228.08" cy="384.21" r="1.67"/><circle class="cls-10" cx="298.07" cy="282.77" r="1.25"/><circle class="cls-8" cx="273.43" cy="308.5" r="1.25"/><circle class="cls-10" cx="326.72" cy="415.2" r="1"/><circle class="cls-3" cx="287.45" cy="402.59" r="1.25"/><circle class="cls-4" cx="246.88" cy="441.16" r="1.25"/><circle class="cls-5" cx="236.81" cy="492.29" r="1.74"/><circle class="cls-6" cx="233.99" cy="125.69" r="1.25"/><circle class="cls-5" cx="200.7" cy="188.83" r="1.25"/><circle class="cls-4" cx="291.99" cy="43.37" r="1.25"/><circle class="cls-3" cx="331.61" cy="65.94" r="1.25"/><circle class="cls-5" cx="274.43" cy="89.51" r="1.25"/><circle class="cls-7" cx="198.98" cy="439.39" r="1.25"/><circle class="cls-5" cx="242.84" cy="253.58" r="1.25"/><circle class="cls-8" cx="317.38" cy="210.05" r="1.25"/><circle class="cls-10" cx="228.13" cy="310.64" r="1.25"/><circle class="cls-9" cx="285.78" cy="159.97" r="1.25"/><circle class="cls-8" cx="136.26" cy="327.18" r="1.25"/><circle class="cls-5" cx="299.56" cy="19.43" r="1.25"/><circle class="cls-7" cx="361.87" cy="402.59" r="1.25"/><circle class="cls-5" cx="314.85" cy="351.62" r="2.21"/><circle class="cls-7" cx="362.98" cy="488.54" r="2.21"/><circle class="cls-4" cx="245.54" cy="191.36" r="2.21"/><circle class="cls-11" cx="249.81" cy="431.38" r="2.09"/><circle class="cls-11" cx="214.24" cy="404.27" r="1.25"/><circle class="cls-11" cx="170.38" cy="441.32" r="1.25"/><circle class="cls-11" cx="157.49" cy="125.85" r="1.25"/><circle class="cls-11" cx="235.05" cy="103.64" r="1.25"/><circle class="cls-11" cx="247.54" cy="42.11" r="1.25"/><circle class="cls-11" cx="179.95" cy="348.53" r="1.25"/><circle class="cls-11" cx="166.34" cy="253.74" r="1.25"/><circle class="cls-11" cx="240.88" cy="210.21" r="1.25"/><circle class="cls-11" cx="195.43" cy="162.9" r="1.25"/><circle class="cls-11" cx="323.35" cy="485.3" r="2.27"/><circle class="cls-11" cx="238.35" cy="351.78" r="1.73"/><circle class="cls-11" cx="174.65" cy="224.61" r="2.21"/><circle class="cls-11" cx="305.5" cy="168.29" r="1.67"/><circle class="cls-11" cx="249.81" cy="431.38" r="2.09"/><circle class="cls-11" cx="214.24" cy="404.27" r="1.25"/><circle class="cls-11" cx="170.38" cy="441.32" r="1.25"/><circle class="cls-11" cx="157.49" cy="125.85" r="1.25"/><circle class="cls-11" cx="235.05" cy="103.64" r="1.25"/><circle class="cls-11" cx="247.54" cy="42.11" r="1.25"/><circle class="cls-11" cx="179.95" cy="348.53" r="1.25"/><circle class="cls-11" cx="166.34" cy="253.74" r="1.25"/><circle class="cls-11" cx="240.88" cy="210.21" r="1.25"/><circle class="cls-11" cx="195.43" cy="162.9" r="1.25"/><circle class="cls-11" cx="323.35" cy="485.3" r="2.27"/><circle class="cls-11" cx="238.35" cy="351.78" r="1.73"/><circle class="cls-11" cx="174.65" cy="224.61" r="2.21"/><circle class="cls-11" cx="305.5" cy="168.29" r="1.67"/><circle class="cls-11" cx="235.51" cy="269.73" r="1.25"/><circle class="cls-11" cx="260.14" cy="244" r="1.25"/><circle class="cls-11" cx="206.86" cy="137.3" r="1"/><circle class="cls-11" cx="246.13" cy="149.91" r="1.25"/><circle class="cls-11" cx="286.7" cy="111.34" r="1.25"/><circle class="cls-11" cx="296.77" cy="60.21" r="1.74"/><circle class="cls-11" cx="299.59" cy="426.81" r="1.25"/><circle class="cls-11" cx="332.88" cy="363.67" r="1.25"/><circle class="cls-11" cx="241.59" cy="509.13" r="1.25"/><circle class="cls-11" cx="201.97" cy="486.56" r="1.25"/><circle class="cls-11" cx="259.15" cy="462.98" r="1.25"/><circle class="cls-11" cx="334.6" cy="113.11" r="1.25"/><circle class="cls-11" cx="290.74" cy="298.91" r="1.25"/><circle class="cls-11" cx="216.2" cy="342.45" r="1.25"/><circle class="cls-12" cx="305.45" cy="241.86" r="1.25"/><circle class="cls-11" cx="247.79" cy="392.53" r="1.25"/><circle class="cls-12" cx="376.84" cy="3.1" r="1.25"/><circle class="cls-11" cx="357.99" cy="212.27" r="1.25"/><circle class="cls-11" cx="171.71" cy="149.91" r="1.25"/><circle class="cls-13" cx="218.73" cy="200.88" r="2.21"/><circle class="cls-11" cx="170.6" cy="63.95" r="2.21"/><circle class="cls-11" cx="288.03" cy="361.14" r="2.21"/><circle class="cls-11" cx="163.58" cy="392.34" r="2.21"/><circle class="cls-3" cx="128.2" cy="148.23" r="1.25"/><circle class="cls-4" cx="172.06" cy="111.18" r="1.25"/><circle class="cls-5" cx="184.95" cy="426.65" r="1.25"/><circle class="cls-6" cx="107.38" cy="448.86" r="1.25"/><circle class="cls-4" cx="94.9" cy="510.39" r="1.25"/><circle class="cls-7" cx="162.48" cy="203.97" r="1.25"/><circle class="cls-5" cx="176.1" cy="298.75" r="1.25"/><circle class="cls-8" cx="101.56" cy="342.28" r="1.25"/><circle class="cls-9" cx="147.01" cy="389.6" r="1.25"/><circle class="cls-5" cx="104.09" cy="200.72" r="1.73"/><circle class="cls-10" cx="36.93" cy="384.21" r="1.67"/><circle class="cls-3" cx="128.2" cy="148.23" r="1.25"/><circle class="cls-4" cx="172.06" cy="111.18" r="1.25"/><circle class="cls-5" cx="195.83" cy="378.61" r="1.25"/><circle class="cls-6" cx="107.38" cy="448.86" r="1.25"/><circle class="cls-4" cx="94.9" cy="510.39" r="1.25"/><circle class="cls-7" cx="154.08" cy="180.54" r="1.25"/><circle class="cls-5" cx="176.1" cy="298.75" r="1.25"/><circle class="cls-8" cx="101.56" cy="342.28" r="1.25"/><circle class="cls-9" cx="147.01" cy="389.6" r="1.25"/><circle class="cls-5" cx="104.09" cy="200.72" r="1.73"/><circle class="cls-10" cx="36.93" cy="384.21" r="1.67"/><circle class="cls-10" cx="106.93" cy="282.77" r="1.25"/><circle class="cls-8" cx="82.29" cy="308.5" r="1.25"/><circle class="cls-10" cx="135.58" cy="415.2" r="1"/><circle class="cls-3" cx="96.31" cy="402.59" r="1.25"/><circle class="cls-4" cx="55.74" cy="441.16" r="1.25"/><circle class="cls-5" cx="45.67" cy="492.29" r="1.74"/><circle class="cls-6" cx="42.85" cy="125.69" r="1.25"/><circle class="cls-5" cx="9.56" cy="188.83" r="1.25"/><circle class="cls-4" cx="100.84" cy="43.37" r="1.25"/><circle class="cls-3" cx="140.47" cy="65.94" r="1.25"/><circle class="cls-5" cx="83.29" cy="89.51" r="1.25"/><circle class="cls-7" cx="7.84" cy="439.39" r="1.25"/><circle class="cls-12" cx="51.7" cy="253.58" r="1.25"/><circle class="cls-8" cx="126.24" cy="210.05" r="1.25"/><circle class="cls-12" cx="36.98" cy="310.64" r="1.25"/><circle class="cls-9" cx="94.64" cy="159.97" r="1.25"/><circle class="cls-12" cx="139.11" cy="16.78" r="1.25"/><circle class="cls-7" cx="170.73" cy="402.59" r="1.25"/><circle class="cls-7" cx="171.83" cy="488.54" r="2.21"/><circle class="cls-4" cx="54.4" cy="191.36" r="2.21"/><circle class="cls-14" cx="58.67" cy="431.38" r="2.09"/><circle class="cls-3" cx="23.1" cy="404.27" r="1.25"/><circle class="cls-6" cx="43.91" cy="103.64" r="1.25"/><circle class="cls-4" cx="56.4" cy="42.11" r="1.25"/><circle class="cls-8" cx="49.74" cy="210.21" r="1.25"/><circle class="cls-9" cx="4.28" cy="162.9" r="1.25"/><circle class="cls-8" cx="132.21" cy="485.3" r="2.27"/><circle class="cls-5" cx="47.21" cy="351.78" r="1.73"/><circle class="cls-14" cx="58.67" cy="431.38" r="2.09"/><circle class="cls-3" cx="23.1" cy="404.27" r="1.25"/><circle class="cls-6" cx="43.91" cy="103.64" r="1.25"/><circle class="cls-4" cx="56.4" cy="42.11" r="1.25"/><circle class="cls-8" cx="49.74" cy="210.21" r="1.25"/><circle class="cls-9" cx="4.28" cy="162.9" r="1.25"/><circle class="cls-8" cx="132.21" cy="485.3" r="2.27"/><circle class="cls-5" cx="47.21" cy="351.78" r="1.73"/><circle class="cls-4" cx="6.58" cy="248.16" r="2.21"/><circle class="cls-10" cx="44.37" cy="269.73" r="1.25"/><circle class="cls-8" cx="69" cy="244" r="1.25"/><circle class="cls-10" cx="15.72" cy="137.3" r="1"/><circle class="cls-3" cx="54.98" cy="149.91" r="1.25"/><circle class="cls-4" cx="95.56" cy="111.34" r="1.25"/><circle class="cls-5" cx="105.63" cy="60.21" r="1.74"/><circle class="cls-6" cx="108.45" cy="426.81" r="1.25"/><circle class="cls-5" cx="141.74" cy="363.67" r="1.25"/><circle class="cls-4" cx="50.45" cy="509.13" r="1.25"/><circle class="cls-3" cx="10.83" cy="486.56" r="1.25"/><circle class="cls-5" cx="68.01" cy="462.98" r="1.25"/><circle class="cls-7" cx="143.45" cy="113.11" r="1.25"/><circle class="cls-5" cx="99.59" cy="298.91" r="1.25"/><circle class="cls-8" cx="25.06" cy="342.45" r="1.25"/><circle class="cls-10" cx="114.31" cy="241.86" r="1.25"/><circle class="cls-9" cx="56.65" cy="392.53" r="1.25"/><circle class="cls-4" cx="180.55" cy="38.49" r="1.25"/><circle class="cls-8" cx="166.85" cy="212.27" r="1.25"/><circle class="cls-8" cx="184.95" cy="428.99" r="1.25"/><circle class="cls-5" cx="27.59" cy="200.88" r="2.21"/><circle class="cls-5" cx="9.33" cy="7.65" r="2.21"/><circle class="cls-8" cx="499.26" cy="327.18" r="1.25"/><circle class="cls-11" cx="533.38" cy="441.32" r="1.25"/><circle class="cls-11" cx="520.49" cy="125.85" r="1.25"/><circle class="cls-11" cx="542.96" cy="348.53" r="1.25"/><circle class="cls-11" cx="529.34" cy="253.74" r="1.25"/><circle class="cls-11" cx="537.65" cy="224.61" r="2.21"/><circle class="cls-11" cx="533.38" cy="441.32" r="1.25"/><circle class="cls-11" cx="520.49" cy="125.85" r="1.25"/><circle class="cls-11" cx="542.96" cy="348.53" r="1.25"/><circle class="cls-11" cx="529.34" cy="253.74" r="1.25"/><circle class="cls-11" cx="537.65" cy="224.61" r="2.21"/><circle class="cls-11" cx="534.71" cy="149.91" r="1.25"/><circle class="cls-11" cx="533.6" cy="63.95" r="2.21"/><circle class="cls-11" cx="526.58" cy="392.34" r="2.21"/><circle class="cls-3" cx="491.2" cy="148.23" r="1.25"/><circle class="cls-4" cx="535.06" cy="111.18" r="1.25"/><circle class="cls-6" cx="470.39" cy="448.86" r="1.25"/><circle class="cls-4" cx="457.9" cy="510.39" r="1.25"/><circle class="cls-7" cx="525.49" cy="203.97" r="1.25"/><circle class="cls-5" cx="539.1" cy="298.75" r="1.25"/><circle class="cls-8" cx="464.56" cy="342.28" r="1.25"/><circle class="cls-9" cx="510.01" cy="389.6" r="1.25"/><circle class="cls-5" cx="467.09" cy="200.72" r="1.73"/><circle class="cls-4" cx="530.79" cy="327.89" r="2.21"/><circle class="cls-10" cx="399.94" cy="384.21" r="1.67"/><circle class="cls-3" cx="491.2" cy="148.23" r="1.25"/><circle class="cls-4" cx="535.06" cy="111.18" r="1.25"/><circle class="cls-6" cx="470.39" cy="448.86" r="1.25"/><circle class="cls-4" cx="457.9" cy="510.39" r="1.25"/><circle class="cls-7" cx="517.08" cy="180.54" r="1.25"/><circle class="cls-5" cx="539.1" cy="298.75" r="1.25"/><circle class="cls-8" cx="464.56" cy="342.28" r="1.25"/><circle class="cls-9" cx="510.01" cy="389.6" r="1.25"/><circle class="cls-5" cx="467.09" cy="200.72" r="1.73"/><circle class="cls-4" cx="530.79" cy="327.89" r="2.21"/><circle class="cls-10" cx="399.94" cy="384.21" r="1.67"/><circle class="cls-10" cx="469.93" cy="282.77" r="1.25"/><circle class="cls-8" cx="445.3" cy="308.5" r="1.25"/><circle class="cls-10" cx="498.58" cy="415.2" r="1"/><circle class="cls-3" cx="459.31" cy="402.59" r="1.25"/><circle class="cls-4" cx="418.74" cy="441.16" r="1.25"/><circle class="cls-5" cx="408.67" cy="492.29" r="1.74"/><circle class="cls-6" cx="405.85" cy="125.69" r="1.25"/><circle class="cls-5" cx="372.56" cy="188.83" r="1.25"/><circle class="cls-4" cx="463.85" cy="43.37" r="1.25"/><circle class="cls-3" cx="503.47" cy="65.94" r="1.25"/><circle class="cls-5" cx="446.29" cy="89.51" r="1.25"/><circle class="cls-7" cx="370.84" cy="439.39" r="1.25"/><circle class="cls-12" cx="414.7" cy="253.58" r="1.25"/><circle class="cls-8" cx="489.24" cy="210.05" r="1.25"/><circle class="cls-12" cx="399.99" cy="310.64" r="1.25"/><circle class="cls-9" cx="457.65" cy="159.97" r="1.25"/><circle class="cls-8" cx="347.45" cy="340.23" r="1.25"/><circle class="cls-12" cx="502.11" cy="16.78" r="1.25"/><circle class="cls-7" cx="533.73" cy="402.59" r="1.25"/><circle class="cls-5" cx="486.71" cy="351.62" r="2.21"/><circle class="cls-7" cx="534.84" cy="488.54" r="2.21"/><circle class="cls-4" cx="417.41" cy="191.36" r="2.21"/><circle class="cls-14" cx="421.68" cy="431.38" r="2.09"/><circle class="cls-3" cx="386.1" cy="404.27" r="1.25"/><circle class="cls-4" cx="342.24" cy="441.32" r="1.25"/><circle class="cls-5" cx="329.35" cy="125.85" r="1.25"/><circle class="cls-6" cx="406.91" cy="103.64" r="1.25"/><circle class="cls-4" cx="419.4" cy="42.11" r="1.25"/><circle class="cls-7" cx="351.81" cy="348.53" r="1.25"/><circle class="cls-5" cx="338.2" cy="253.74" r="1.25"/><circle class="cls-8" cx="412.74" cy="210.21" r="1.25"/><circle class="cls-9" cx="367.29" cy="162.9" r="1.25"/><circle class="cls-8" cx="495.21" cy="485.3" r="2.27"/><circle class="cls-5" cx="410.21" cy="351.78" r="1.73"/><circle class="cls-4" cx="346.51" cy="224.61" r="2.21"/><circle class="cls-10" cx="477.36" cy="168.29" r="1.67"/><circle class="cls-14" cx="421.68" cy="431.38" r="2.09"/><circle class="cls-3" cx="386.1" cy="404.27" r="1.25"/><circle class="cls-4" cx="342.24" cy="441.32" r="1.25"/><circle class="cls-5" cx="329.35" cy="125.85" r="1.25"/><circle class="cls-6" cx="406.91" cy="103.64" r="1.25"/><circle class="cls-4" cx="419.4" cy="42.11" r="1.25"/><circle class="cls-7" cx="351.81" cy="348.53" r="1.25"/><circle class="cls-5" cx="361.28" cy="277.3" r="1.25"/><circle class="cls-8" cx="412.74" cy="210.21" r="1.25"/><circle class="cls-9" cx="367.29" cy="162.9" r="1.25"/><circle class="cls-8" cx="495.21" cy="485.3" r="2.27"/><circle class="cls-5" cx="410.21" cy="351.78" r="1.73"/><circle class="cls-4" cx="369.58" cy="248.16" r="2.21"/><circle class="cls-10" cx="477.36" cy="168.29" r="1.67"/><circle class="cls-10" cx="407.37" cy="269.73" r="1.25"/><circle class="cls-8" cx="432.01" cy="244" r="1.25"/><circle class="cls-10" cx="378.72" cy="137.3" r="1"/><circle class="cls-3" cx="417.99" cy="149.91" r="1.25"/><circle class="cls-4" cx="458.56" cy="111.34" r="1.25"/><circle class="cls-5" cx="468.63" cy="60.21" r="1.74"/><circle class="cls-6" cx="471.45" cy="426.81" r="1.25"/><circle class="cls-5" cx="504.74" cy="363.67" r="1.25"/><circle class="cls-4" cx="413.45" cy="509.13" r="1.25"/><circle class="cls-3" cx="373.83" cy="486.56" r="1.25"/><circle class="cls-5" cx="431.01" cy="462.98" r="1.25"/><circle class="cls-7" cx="506.46" cy="113.11" r="1.25"/><circle class="cls-5" cx="462.6" cy="298.91" r="1.25"/><circle class="cls-8" cx="388.06" cy="342.45" r="1.25"/><circle class="cls-10" cx="477.31" cy="241.86" r="1.25"/><circle class="cls-9" cx="419.65" cy="392.53" r="1.25"/><circle class="cls-4" cx="543.55" cy="38.49" r="1.25"/><circle class="cls-8" cx="529.85" cy="212.27" r="1.25"/><circle class="cls-7" cx="343.57" cy="149.91" r="1.25"/><circle class="cls-5" cx="390.59" cy="200.88" r="2.21"/><circle class="cls-5" cx="368.41" cy="18.45" r="2.21"/><circle class="cls-4" cx="459.89" cy="361.14" r="2.21"/><circle class="cls-10" cx="335.44" cy="392.34" r="2.21"/></g><circle class="cls-14" cx="454.96" cy="131.2" r="1.04"/><circle class="cls-14" cx="283.96" cy="135.53" r="1.04"/><circle class="cls-14" cx="91" cy="129.82" r="1.04"/><circle class="cls-10" cx="124.62" cy="180.53" r="1.04"/><circle class="cls-14" cx="539" cy="167.2" r="1.04"/><circle class="cls-8" cx="27.62" cy="66.87" r="1.04"/><circle class="cls-8" cx="210.67" cy="81.82" r="1.04"/><circle class="cls-8" cx="364.62" cy="76.87" r="1.04"/><circle class="cls-5" cx="176.83" cy="269.37" r="1.04"/><circle class="cls-4" cx="103.33" cy="367.87" r="1.04"/><circle class="cls-8" cx="134.79" cy="276.87" r="1.04"/><circle class="cls-4" cx="332.79" cy="314.37" r="1.04"/></svg>