<svg id="Layer_1" data-name="Layer 1" xmlns="http://www.w3.org/2000/svg" viewBox="0 0 45.73 45.73"><defs><style>.cls-1{fill:#ffc200;}.cls-2{fill:none;stroke:#122632;stroke-miterlimit:10;}.cls-3,.cls-4{fill:#122632;}.cls-4{font-size:6.47px;font-family:MyriadPro-Bold, Myriad Pro;font-weight:700;}</style></defs><title>ecommerce</title><circle class="cls-1" cx="22.86" cy="22.86" r="22.65"/><path class="cls-2" d="M32.53,32.74H4.11a1.29,1.29,0,0,1-1.29-1.29V3.69A1.29,1.29,0,0,1,4.11,2.4H38.86a1.29,1.29,0,0,1,1.29,1.29V14.52"/><line class="cls-2" x1="2.82" y1="7.4" x2="39.82" y2="7.4"/><circle class="cls-3" cx="6.26" cy="4.92" r="1.19"/><circle class="cls-3" cx="9.79" cy="4.92" r="1.19"/><circle class="cls-3" cx="13.32" cy="4.92" r="1.19"/><line class="cls-2" x1="21.15" y1="12.65" x2="36.41" y2="12.65"/><line class="cls-2" x1="21.15" y1="15.65" x2="32.4" y2="15.65"/><line class="cls-2" x1="21.15" y1="18.65" x2="32.4" y2="18.65"/><rect class="cls-2" x="21.82" y="21.9" width="6.92" height="3.08"/><rect class="cls-2" x="34.89" y="17.17" width="8.15" height="16.29" rx="1.36" ry="1.36"/><line class="cls-2" x1="34.72" y1="30.34" x2="42.8" y2="30.34"/><line class="cls-2" x1="34.72" y1="19.75" x2="42.8" y2="19.75"/><text class="cls-4" transform="translate(37.17 27.24)">$</text><path class="cls-2" d="M6.34,15.55v0l.09,0L9.81,14l.65-.28a1.84,1.84,0,0,0,3.39,0L18,15.51l-1.16,2.74-1.23-.52v7.7H8.77V17.71l-1.27.54-.05-.12-1-2.45Z"/></svg>