<svg id="Layer_1" data-name="Layer 1" xmlns="http://www.w3.org/2000/svg" viewBox="0 0 25.03 25.03"><defs><style>.cls-1{fill:#0a090c;fill-rule:evenodd;}</style></defs><title>instagram</title><path class="cls-1" d="M20.13,11H18.42a6,6,0,1,1-11.7,0H5v8.32a.76.76,0,0,0,.76.76H19.37a.76.76,0,0,0,.76-.76Zm0-5.29A.76.76,0,0,0,19.37,5H17.1a.76.76,0,0,0-.76.76V8a.76.76,0,0,0,.76.76h2.27A.76.76,0,0,0,20.13,8Zm-7.56,3a3.78,3.78,0,1,0,3.78,3.78,3.78,3.78,0,0,0-3.78-3.78m7.56,13.61H5a2.27,2.27,0,0,1-2.27-2.27V5A2.27,2.27,0,0,1,5,2.69H20.13A2.27,2.27,0,0,1,22.4,5V20.07a2.27,2.27,0,0,1-2.27,2.27"/></svg>