<svg id="Layer_1" data-name="Layer 1" xmlns="http://www.w3.org/2000/svg" viewBox="0 0 513.82 455.61"><defs><style>.cls-1{fill:#f2a700;}.cls-2{fill:#0a090c;}</style></defs><title>logo-sm-b</title><polygon class="cls-1" points="359.63 3.64 301.26 76.91 326.28 108.18 361.15 65.12 426.4 145.97 356.52 145.97 389.33 186.97 506.33 186.97 359.63 3.64"/><rect class="cls-2" x="242.5" y="317.37" width="267.22" height="41.62"/><path class="cls-2" d="M461.09,452H418l-78.9-137.09V452h-48V225.47h44.05l77.58,135.44V225.47h48.33Z"/><polygon class="cls-1" points="199.96 451.97 156.96 451.97 156.96 408.97 4.1 408.97 94.16 293.97 36.07 293.97 121.6 186.97 70.58 186.97 216.63 3.64 363.33 186.97 245.96 186.97 245.96 145.97 283.4 145.97 218.15 65.12 152.68 145.97 207.47 145.97 121.94 253.97 178.72 253.97 88.66 368.97 199.96 368.97 199.96 451.97"/></svg>