<svg xmlns="http://www.w3.org/2000/svg" width="30.9" height="31">
  <style>
    .st0{fill:#FBBD1D;}
  </style>
  <path class="st0" d="M13.5 9.6h3.3c.2 0 .3-.2.2-.3L11.7.1c-.1-.1-.3-.1-.3 0L2.2 14.8c-.1.1 0 .3.2.3h1.5c.2 0 .3.2.2.3L.9 20.9c-.1.1 0 .3.2.3h2.3c.2 0 .3.2.2.3L0 27.2c-.1.1 0 .3.2.3h6.1c.1 0 .2.1.2.2v3c0 .1.1.2.2.2h2.8c.1 0 .2-.1.2-.2v-6.3c0-.1-.1-.2-.2-.2H6.1c-.2 0-.3-.2-.2-.3l3.6-5.7c.1-.1 0-.3-.2-.3H6.7c-.2 0-.3-.2-.2-.3l3.2-5.5c.1-.1 0-.3-.2-.3H8.2c-.2 0-.3-.2-.2-.3l3.2-5.1c.1-.1.3-.1.3 0l1.7 3c.2.1.2.2.3.2z"/>
  <path d="M30.7 19.7h-2.4c-.1 0-.2-.1-.2-.2v-7.3c0-.1-.1-.2-.2-.2h-3.2c-.1 0-.2.1-.2.2v7.3c0 .1-.1.2-.2.2h-1.9c-.1 0-.1 0-.2-.1L18 12.1c0-.1-.1-.1-.2-.1h-3.3c-.1 0-.2.1-.2.2v7.3c0 .1-.1.2-.2.2h-2.4c-.1 0-.2.1-.2.2v3.2c0 .1.1.2.2.2h2.4c.1 0 .2.1.2.2v7.3c0 .1.1.2.2.2h3.2c.1 0 .2-.1.2-.2v-7.3c0-.1.1-.2.2-.2H20c.1 0 .1 0 .2.1l4.2 7.5c0 .1.1.1.2.1h3.3c.1 0 .2-.1.2-.2v-7.3c0-.1.1-.2.2-.2h2.4c.1 0 .2-.1.2-.2v-3.2c0-.2-.1-.2-.2-.2z"/>
  <path class="st0" d="M22.3.1l-3.9 6.3v.2L20 9.3c.1.1.3.1.3 0l1.8-2.9c.1-.1.3-.1.3 0l1.7 3c0 .1.1.1.2.1h3.3c.2 0 .3-.2.2-.3L22.5 0s-.1 0-.2.1z"/>
</svg>