<svg id="mobile" xmlns="http://www.w3.org/2000/svg" viewBox="0 0 800 600"><defs><style>.cls-1{fill:#d9992c;}.cls-2{fill:#0a090c;}</style></defs><title>ryan-page-4</title><rect class="cls-1" x="-15.07" y="-11.3" width="830.14" height="622.61"/><path class="cls-2" d="M551.66,384.64,515,323.26a7.63,7.63,0,0,1,6.44-11.52h23.35c3,0,5-2.3,5-5.34v-.5a4.85,4.85,0,0,0-5-5.17H506a7.71,7.71,0,0,1-6.43-3.8L439.15,196.49a5.5,5.5,0,0,0-4.64-2.75h-.08a5.47,5.47,0,0,0-4.64,2.54L409.68,228a7.7,7.7,0,0,1-6.32,3.71h-.11c-2.62-1-5-1.65-6.33-3.89l-18.63-31.21a5.53,5.53,0,0,0-4.64-2.74,5.42,5.42,0,0,0-4.72,2.5l-31.48,49.12a5.5,5.5,0,0,0,9.27,5.93L366.9,220a7.51,7.51,0,0,1,12.74.17l14.47,24A7.56,7.56,0,0,1,394,252l-28.91,45.09a7.64,7.64,0,0,1-6.31,3.61H304.95a5.33,5.33,0,0,0-4.64,2.38l-51.88,81.47a5.16,5.16,0,0,0-.18,5.45,5.29,5.29,0,0,0,4.83,2.7H546.94a5.34,5.34,0,0,0,4.79-2.67A5.24,5.24,0,0,0,551.66,384.64ZM383.13,288.85,427.76,219a7.51,7.51,0,0,1,12.76.19L482.31,289a7.73,7.73,0,0,1,.09,7.73,7.58,7.58,0,0,1-6.53,4H389.45a7.57,7.57,0,0,1-6.58-4.07A7.72,7.72,0,0,1,383.13,288.85Zm86.76,89.94a7.58,7.58,0,0,1-6.52,4H276.54A7.7,7.7,0,0,1,270.21,371l35.3-55.63a7.59,7.59,0,0,1,6.33-3.6H430.39a7.62,7.62,0,0,1,6.45,3.76l33,55.62A7.65,7.65,0,0,1,469.89,378.79Zm60.94,0a7.58,7.58,0,0,1-6.52,4H493.46a7.69,7.69,0,0,1-6.45-3.83l-33-55.58a7.65,7.65,0,0,1-.07-7.67,7.54,7.54,0,0,1,6.52-3.92h30.84a7.62,7.62,0,0,1,6.45,3.76l33,55.62A7.65,7.65,0,0,1,530.83,378.79Z"/><path class="cls-2" d="M305.77,444.33V430.77h5.61A4.35,4.35,0,0,1,316,435.3a4.28,4.28,0,0,1-3.25,4.35l3.31,4.68h-3.82l-2.91-4.53h-.29v4.53Zm3.29-10.69V437h2.17a1.48,1.48,0,0,0,1.48-1.67,1.47,1.47,0,0,0-1.48-1.65Z"/><path class="cls-2" d="M325.29,444.33v-6.1L320,430.77h3.92l3,4.92,3.07-4.92h3.9l-5.29,7.52v6Z"/><path class="cls-2" d="M344.95,441.22h-4.27l-1.14,3.11H336l5-13.56h3.58l5,13.56h-3.48Zm-3.39-2.83h2.54l-1.32-4.47Z"/><path class="cls-2" d="M365.12,430.77v13.56h-2.87l-4.15-7.4v7.4H354.8V430.77h3l4.05,7.3v-7.3Z"/><path class="cls-2" d="M377.57,445.53a7,7,0,0,0,1.89.24c.89,0,1.24-.71,1.24-1.57V430.77H384v13.42c0,2.52-1.24,4.67-4.57,4.67a8.08,8.08,0,0,1-2.18-.37Z"/><path class="cls-2" d="M397.13,430.59a7,7,0,1,1-6.91,7A6.92,6.92,0,0,1,397.13,430.59Zm0,10.61a3.65,3.65,0,1,0-3.58-3.64A3.62,3.62,0,0,0,397.13,441.2Z"/><path class="cls-2" d="M417.67,430.77H421v13.56h-3.35v-5.28h-4.13v5.28h-3.29V430.77h3.29v5.35h4.13Z"/><path class="cls-2" d="M438.29,430.77v13.56h-2.87l-4.15-7.4v7.4H428V430.77h3l4.05,7.3v-7.3Z"/><path class="cls-2" d="M447.85,440.3c0,.73.53,1.32,1.67,1.32.85,0,1.67-.37,1.67-1.22,0-.22,0-.67-1.36-1.12l-1.59-.53c-3-.83-3.54-2.76-3.54-4,0-2.48,2-4.15,4.74-4.15s4.67,1.55,4.67,4.23h-3.29c0-.73-.41-1.26-1.42-1.26S448,434,448,434.65c0,.26.08.75,1.26,1.1l1.55.49c3.56,1.1,3.76,3.17,3.76,4.13,0,3-2.74,4.13-5,4.13-3,0-5-1.65-5-4.21Z"/><path class="cls-2" d="M466.86,430.59a7,7,0,1,1-6.91,7A6.92,6.92,0,0,1,466.86,430.59Zm0,10.61a3.65,3.65,0,1,0-3.58-3.64A3.62,3.62,0,0,0,466.86,441.2Z"/><path class="cls-2" d="M490.3,430.77v13.56h-2.87l-4.15-7.4v7.4H480V430.77h3l4.05,7.3v-7.3Z"/></svg>