<svg id="Layer_1" data-name="Layer 1" xmlns="http://www.w3.org/2000/svg" viewBox="0 0 25.03 25.03"><defs><style>.cls-1{fill:#0a090c;}</style></defs><title>twitter</title><path class="cls-1" d="M23.9,5.52a9.24,9.24,0,0,1-2.66.73,4.64,4.64,0,0,0,2-2.56,9.26,9.26,0,0,1-2.94,1.12A4.63,4.63,0,0,0,12.46,9,13.13,13.13,0,0,1,2.93,4.2a4.63,4.63,0,0,0,1.43,6.17A4.6,4.6,0,0,1,2.26,9.8s0,0,0,.06A4.63,4.63,0,0,0,6,14.39a4.62,4.62,0,0,1-2.09.08A4.63,4.63,0,0,0,8.2,17.68,9.34,9.34,0,0,1,1.36,19.6a13.09,13.09,0,0,0,7.09,2.08A13.07,13.07,0,0,0,21.61,8.52q0-.3,0-.6A9.39,9.39,0,0,0,23.9,5.52Z"/></svg>