<svg id="Layer_1" data-name="Layer 1" xmlns="http://www.w3.org/2000/svg" viewBox="0 0 49.73 54.41"><defs><style>.cls-1{fill:#ffc11b;}.cls-2{fill:none;stroke:#000;stroke-linecap:round;stroke-linejoin:round;}</style></defs><title>ui-ux</title><circle class="cls-1" cx="26.62" cy="27.79" r="22.65"/><polyline class="cls-2" points="16.49 20.1 16.49 13.01 14.57 11.1"/><polyline class="cls-2" points="19.4 20.1 19.4 14.67 19.39 13.07 21.32 11.1"/><polyline class="cls-2" points="15.63 10.29 16.44 9.7 17.3 10.5 18.23 9.7 19.09 10.7 20.21 9.84"/><path class="cls-2" d="M22.59,18.6a5.65,5.65,0,0,1,1.26-2A8,8,0,0,0,26.1,11,8.2,8.2,0,0,0,9.72,10.2a8.05,8.05,0,0,0,2.22,6.37,5.66,5.66,0,0,1,1.58,3.93v4.57l1.2,1.48h1.42"/><line class="cls-2" x1="13.59" y1="20.1" x2="20.33" y2="20.1"/><line class="cls-2" x1="15.01" y1="22.39" x2="18" y2="22.39"/><line class="cls-2" x1="15.41" y1="24.18" x2="16.85" y2="24.18"/><path class="cls-2" d="M39.52,28.47V32.4l-.06,0-1.89.38s-.09,0-.11.08a7,7,0,0,1-.76,1.77.1.1,0,0,0,0,.14l1.09,1.48.36.49-2.86,2.86-.06,0-1.9-1.4a.11.11,0,0,0-.15,0,5.69,5.69,0,0,1-1.78.77.09.09,0,0,0-.06.06c-.1.56-.19,1.12-.28,1.68l-.12.71h-4c-.06,0-.07,0-.07-.07L26.47,39a.11.11,0,0,0-.08-.1l-1.78-.76a.11.11,0,0,0-.12,0l-1.83,1.22-.13.09-2.86-2.86,0-.05c.4-.6.79-1.2,1.2-1.8a.28.28,0,0,0,0-.36,5.19,5.19,0,0,1-.69-1.63.11.11,0,0,0-.1-.1l-2.37-.39v-4h.1L20,28.06a.08.08,0,0,0,.08-.06l.14-.37a7.92,7.92,0,0,1,.62-1.41.11.11,0,0,0,0-.14l-1.27-1.9,0-.07,2.86-2.86.09.07,1.87,1.38a.11.11,0,0,0,.14,0,5.75,5.75,0,0,1,1.79-.77.09.09,0,0,0,0-.06l.25-1.48.15-.91h3.94v.05l.24,2.16c0,.07,0,.16,0,.21s.13.05.2.07h0a7.38,7.38,0,0,1,1.61.72.11.11,0,0,0,.14,0l1.87-1.38.08-.06,2.86,2.86c-.44.6-.88,1.22-1.34,1.82a.34.34,0,0,0,0,.43,8.29,8.29,0,0,1,.7,1.64.09.09,0,0,0,.06,0l1.54.26Zm-10.82,6,.38,0,.23,0a3.9,3.9,0,0,0,2.87-2,4.08,4.08,0,0,0,.47-2.81A3.87,3.87,0,0,0,31,27a4,4,0,0,0-3-.64A3.86,3.86,0,0,0,25,28.46a4.11,4.11,0,0,0-.35,2.87,3.87,3.87,0,0,0,1.48,2.31A4.11,4.11,0,0,0,28.7,34.45Z"/></svg>