<svg id="Layer_1" data-name="Layer 1" xmlns="http://www.w3.org/2000/svg" viewBox="0 0 49.73 54.41"><defs><style>.cls-1{fill:#ffc11b;}.cls-2,.cls-3{fill:none;stroke:#000;stroke-linejoin:round;}.cls-2{stroke-linecap:round;}</style></defs><title>web-design</title><circle class="cls-1" cx="26.78" cy="27.79" r="22.65"/><path class="cls-2" d="M40.29,23.66V7.29a2.71,2.71,0,0,0-2.52-2.52H6.28A2.71,2.71,0,0,0,3.76,7.29V26.67"/><path class="cls-2" d="M30.21,26.18H3.76V30a2.71,2.71,0,0,0,2.52,2.52H30.21"/><circle class="cls-2" cx="22.02" cy="29.33" r="0.63"/><rect class="cls-2" x="32.73" y="26.18" width="7.56" height="15.12" rx="1.26" ry="1.26"/><path class="cls-3" d="M25.17,34.16v4.63h2.52a2.71,2.71,0,0,1,2.52,2.52H13.83a2.71,2.71,0,0,1,2.52-2.52h9.3"/><line class="cls-3" x1="18.87" y1="38.78" x2="18.87" y2="34.16"/><line class="cls-2" x1="35.02" y1="7.19" x2="37.61" y2="9.77"/><line class="cls-2" x1="31.13" y1="7.77" x2="37.1" y2="13.74"/><line class="cls-2" x1="32.77" y1="38.22" x2="40.02" y2="38.22"/><line class="cls-2" x1="32.77" y1="29.22" x2="39.77" y2="29.22"/><line class="cls-2" x1="37.27" y1="31.09" x2="38.64" y2="33.09"/></svg>